<?xml version="1.0" encoding="UTF-8" standalone="no"?>
<svg
   xmlns:dc="http://purl.org/dc/elements/1.1/"
   xmlns:cc="http://creativecommons.org/ns#"
   xmlns:rdf="http://www.w3.org/1999/02/22-rdf-syntax-ns#"
   xmlns:svg="http://www.w3.org/2000/svg"
   xmlns="http://www.w3.org/2000/svg"
   xmlns:sodipodi="http://sodipodi.sourceforge.net/DTD/sodipodi-0.dtd"
   xmlns:inkscape="http://www.inkscape.org/namespaces/inkscape"
   version="1.1"
   x="0px"
   y="0px"
   viewBox="0 0 100 125"
   enable-background="new 0 0 100 100"
   xml:space="preserve"
   id="svg2"
   inkscape:version="0.91 r13725"
   sodipodi:docname="doc.svg"><metadata
     id="metadata36"><rdf:RDF><cc:Work
         rdf:about=""><dc:format>image/svg+xml</dc:format><dc:type
           rdf:resource="http://purl.org/dc/dcmitype/StillImage" /></cc:Work></rdf:RDF></metadata><defs
     id="defs34" /><sodipodi:namedview
     pagecolor="#ffffff"
     bordercolor="#666666"
     borderopacity="1"
     objecttolerance="10"
     gridtolerance="10"
     guidetolerance="10"
     inkscape:pageopacity="0"
     inkscape:pageshadow="2"
     inkscape:window-width="1200"
     inkscape:window-height="1576"
     id="namedview32"
     showgrid="false"
     inkscape:zoom="3.776"
     inkscape:cx="-3.878888"
     inkscape:cy="60.427023"
     inkscape:window-x="0"
     inkscape:window-y="75"
     inkscape:window-maximized="1"
     inkscape:current-layer="svg2" /><g
     id="g4"
     style="fill:#ffffff;fill-opacity:1"
     inkscape:export-xdpi="600"
     inkscape:export-ydpi="600"><polygon
       points="53.494,42.417 93.159,42.417 93.159,64.226 93.172,64.226 93.172,42.413 53.494,42.413  "
       id="polygon6"
       style="fill:#ffffff;fill-opacity:1" /><path
       d="M16.568,38.219c-0.817,0.144-1.188,1.885-0.829,3.889c0.322,1.844,1.155,3.269,1.92,3.375   c0.977,2.625,2.521,5.171,4.43,7.038c1.081,1.057,2.278,1.891,3.555,2.397c0.877,0.35,1.792,0.541,2.734,0.541   c0.941,0,1.855-0.19,2.735-0.541c1.321-0.524,2.56-1.398,3.669-2.51c1.863-1.858,3.365-4.367,4.324-6.945   c0.735-0.216,1.506-1.594,1.822-3.354c0.339-1.91,0.019-3.573-0.718-3.854c0.026-0.467,0.043-0.937,0.043-1.42   c-0.02-6.921-4.078-10.944-10.476-11.374c-5.578-0.374-9.782,1.842-11.695,5.527c-0.644,1.239-1.013,2.79-1.156,4.471   c-0.214,0.878-0.338,1.79-0.338,2.732h0.02c0,0.009-0.001,0.015-0.001,0.023C16.594,38.215,16.581,38.218,16.568,38.219z    M17.84,40.327c0.081-0.235,0.187-0.419,0.323-0.517c0.023-0.012,0.047-0.015,0.063-0.027c0.039-0.022,0.081-0.047,0.125-0.052   h0.002c0.039-0.007,0.079-0.007,0.118-0.004c0.114,0.012,0.23,0.067,0.346,0.16c0,0,0,0,0.001,0c0-0.006,0-0.012,0.001-0.018   c0.001-0.006,0.002-0.012,0.002-0.018c0.042-0.422,0.509-3.5,3.029-4.423c0.029-0.012,0.065-0.016,0.095-0.027   c0.167-0.055,0.337-0.108,0.522-0.145c0.225-0.043,0.465-0.071,0.719-0.081c0.239-0.009,0.49-0.005,0.755,0.02   c0,0,1.82,0.669,4.094,0.677c1.026,0.004,2.145-0.126,3.229-0.514c0.192-0.004,0.382-0.007,0.566-0.007   c0.176,0,0.348,0.002,0.512,0.008c1.445,0.056,2.436,0.802,3.47,1.285h0.002c0-0.005-0.001-0.009-0.002-0.014   c-0.045-0.47-0.4-0.949-0.384-1.271c0,0,0,0,0-0.001c0.011,0.002,0.019,0.007,0.029,0.011c0.154,0.047,0.295,0.112,0.431,0.185   c0.747,0.797,1.469,2.129,2.043,4.307c0,0.011,0,0.019,0.002,0.027c0.002,0,0.002-0.001,0.002-0.003c0-0.002,0,0,0.004-0.002v0.002   v0.002l0.008-0.011c0.004-0.003,0.007-0.004,0.012-0.007c0.063-0.047,0.125-0.081,0.188-0.106c0.052-0.02,0.104-0.031,0.156-0.036   c0.033-0.002,0.066-0.005,0.098,0c0.039,0.006,0.075,0.02,0.11,0.035c0.478,0.223,0.683,1.337,0.455,2.609   c-0.175,0.973-0.555,1.774-0.958,2.12c-0.08,0.067-0.164,0.119-0.244,0.147c-0.013,0.004-0.024,0.004-0.039,0.007l-0.106,0.012   c-0.001,0-0.001,0-0.002,0c-0.009,0-0.019,0-0.028,0c-0.017,0-0.032,0.002-0.047,0.004c-0.007,0.001-0.014,0.003-0.021,0.002   c-0.079-0.012-0.153-0.053-0.22-0.112c-0.007-0.006-0.016-0.01-0.022-0.017c0,0,0,0,0,0.003c-0.884,2.751-2.568,5.494-4.698,7.159   c-0.623,0.487-1.286,0.879-1.975,1.157c-0.013,0.006-0.026,0.009-0.038,0.013l-0.786,0.24c-0.021,0.006-0.042,0.012-0.064,0.018   c-0.078,0.018-0.15,0.052-0.23,0.065c-0.024,0.006-0.05,0.007-0.076,0.01l-0.305,0.031c-0.026,0.002-0.05,0.003-0.075,0.007   c-0.214,0.024-0.429,0.063-0.646,0.063c-0.004,0.001-0.007,0.001-0.012,0.001c-1.476,0-2.87-0.586-4.119-1.539   c-2.164-1.657-3.877-4.425-4.775-7.208c-0.002-0.005-0.004-0.01-0.005-0.015h-0.001c-0.075,0.067-0.154,0.111-0.24,0.128h-0.001   c-0.038,0.003-0.075,0.006-0.112,0c-0.149-0.014-0.303-0.098-0.45-0.246c-0.377-0.376-0.72-1.136-0.883-2.047   c-0.011-0.06-0.015-0.121-0.024-0.179C17.771,41.556,17.796,40.937,17.84,40.327z"
       id="path8"
       style="fill:#ffffff;fill-opacity:1" /><path
       stroke="#000000"
       stroke-width="0"
       stroke-linecap="round"
       stroke-linejoin="round"
       d="M19.232,44.666L19.232,44.666   c-0.039,0.003-0.076,0.006-0.113,0"
       id="path10"
       style="fill:#ffffff;fill-opacity:1" /><path
       d="M5.543,69.22c2.166,4.097,13.559,5.361,22.775,5.361c0.005,0,0.01,0,0.014,0c0.002,0,0.011,0,0.014,0   c7.63,0,16.75-0.866,20.892-3.491c-0.533-0.744-0.849-1.648-0.849-2.628v-0.141v-2.229v-0.085v-6.843   c-0.126-0.156-0.253-0.311-0.379-0.452c-2.219-2.486-4.454-2.683-5.129-2.841c-0.167-0.039-0.341-0.067-0.513-0.098   c0.063,0.115,0.127,0.23,0.184,0.352c0.244,0.521,0.413,1.063,0.504,1.613c0.157,0.054,0.302,0.116,0.441,0.19   c1.472,0.788,2.03,2.628,1.243,4.102c-0.529,0.988-1.554,1.602-2.676,1.602c-0.495,0-0.989-0.123-1.427-0.358   c-0.714-0.382-1.236-1.019-1.471-1.794c-0.234-0.774-0.154-1.594,0.228-2.308c0.379-0.708,1.025-1.229,1.8-1.461   c-0.193-0.758-0.626-1.618-1.322-2.199c-1.14-0.067-2.194-0.113-2.912-0.336c-0.158,1.315-3.977,5.633-6.479,8.346l-1.085-4.186   c0.815-0.48,0.993-1.541,0.993-2.424h-4.114c0,0.875,0.178,1.926,0.976,2.412l-1.067,4.194c-2.504-2.71-6.323-7.029-6.479-8.343   c-0.691,0.215-1.694,0.265-2.787,0.329c-0.767,0.58-1.331,1.425-1.537,2.149c0.242,0.18,0.44,0.424,0.569,0.709   c1.167,0.551,2.198,1.71,2.987,3.36c0.132,0.277,0.149,0.592,0.052,0.878c0.473,1.218,0.744,2.548,0.744,3.666   c0,1.566,0,3.047-1.707,3.427c-0.186,0.154-0.416,0.238-0.659,0.238h-1.141c-0.572,0-1.038-0.466-1.038-1.037l0.001-0.041   c0.022-0.551,0.483-0.997,1.037-0.997h1.141c0.116,0,0.23,0.02,0.34,0.059c0.069-0.02,0.09-0.035,0.092-0.036   c0.127-0.225,0.127-1.162,0.127-1.612c0-0.908-0.228-2.004-0.625-3.023c-0.207-0.117-0.374-0.295-0.477-0.509   c-0.691-1.448-1.633-2.384-2.396-2.384c-0.781,0-1.769,1.011-2.457,2.515c-0.112,0.246-0.31,0.445-0.553,0.564   c-0.359,0.975-0.557,1.979-0.557,2.837c0,0.378,0,1.382,0.144,1.616c0.002,0,0.034,0.021,0.125,0.043   c0.118-0.046,0.245-0.069,0.372-0.069h1.143c0.532,0,0.977,0.406,1.03,0.933l0.007,0.064c0,0.612-0.465,1.078-1.037,1.078h-1.143   c-0.228,0-0.446-0.075-0.626-0.213c-0.653-0.123-1.113-0.411-1.404-0.88c-0.354-0.566-0.417-1.311-0.417-2.572   c0-1.107,0.255-2.382,0.72-3.6c-0.068-0.26-0.046-0.532,0.067-0.777c0.484-1.058,1.099-1.963,1.778-2.618   c0.374-0.36,0.776-0.649,1.195-0.861c0.154-0.358,0.415-0.661,0.737-0.853c0.104-0.591,0.35-1.202,0.705-1.779   c-0.159,0.029-0.32,0.055-0.475,0.091c-0.694,0.163-3.062,0.373-5.354,3.105c-1.179,1.404-2.337,3.468-3.236,6.562   c-0.246,0.847-0.249,1.737-0.048,2.571C5.239,68.496,5.359,68.872,5.543,69.22z"
       id="path12"
       style="fill:#ffffff;fill-opacity:1" /><circle
       cx="42.066"
       cy="60.602"
       r="1.639"
       id="circle14"
       style="fill:#ffffff;fill-opacity:1" /><path
       d="M93.707,40.714H73.692H73.01H52.993c-0.714,0-1.327,0.53-1.327,1.224v24.069v0.085v2.229v0.141   c0,0.696,0.613,1.28,1.327,1.28h16.032c-0.02,0.398-0.147,2.114-0.984,2.947c-0.657,0.654-1.574,1.27-1.217,1.586   c0.089,0.192,0.496,0.306,1.435,0.306c2.061,0,4.292,0,5.108,0c0.209,0,0.325,0,0.325,0c0.816,0,3.049,0,5.11,0   c1.067,0,1.438-0.17,1.44-0.425h-0.036V74.07h-0.038c-0.046-0.339-0.756-0.848-1.294-1.381c-0.838-0.833-0.965-2.549-0.981-2.947   h15.813c0.715,0,1.293-0.584,1.293-1.28v-0.141v-2.229v-0.085V41.939C94.999,41.245,94.422,40.714,93.707,40.714z M73.333,69.152   c-0.822,0-1.489-0.651-1.489-1.451c0-0.801,0.667-1.452,1.489-1.452c0.821,0,1.487,0.651,1.487,1.452   C74.82,68.501,74.154,69.152,73.333,69.152z M93.172,64.226h-0.013v0.004H53.481V42.417h0.013v-0.004h39.678V64.226z"
       id="path16"
       style="fill:#ffffff;fill-opacity:1" /><path
       d="M60.956,49.779c0.007-0.013,0.017-0.023,0.024-0.036c0.017-0.027,0.033-0.053,0.053-0.079   c0.015-0.019,0.031-0.036,0.047-0.054c0.021-0.021,0.04-0.042,0.062-0.061c0.021-0.017,0.04-0.032,0.062-0.047   c0.021-0.016,0.044-0.031,0.068-0.044c0.023-0.014,0.049-0.026,0.074-0.037c0.016-0.007,0.029-0.016,0.045-0.022   c0.009-0.003,0.018-0.004,0.027-0.007c0.026-0.009,0.053-0.015,0.08-0.021c0.025-0.006,0.052-0.012,0.077-0.016   c0.025-0.003,0.051-0.003,0.077-0.004c0.027-0.001,0.055-0.002,0.082,0c0.025,0.001,0.051,0.007,0.076,0.011   c0.026,0.005,0.053,0.009,0.079,0.016c0.024,0.006,0.049,0.016,0.073,0.025c0.026,0.01,0.053,0.02,0.078,0.032   c0.008,0.004,0.017,0.006,0.024,0.01c0.016,0.008,0.027,0.019,0.042,0.028c0.024,0.015,0.048,0.03,0.07,0.047   c0.021,0.017,0.041,0.035,0.06,0.053c0.02,0.018,0.038,0.036,0.056,0.056c0.019,0.021,0.035,0.044,0.051,0.066   c0.015,0.021,0.028,0.041,0.041,0.063c0.015,0.026,0.027,0.054,0.041,0.082c0.006,0.014,0.014,0.026,0.02,0.041l1.396,3.742   l2.396-5.144c0.005-0.011,0.013-0.02,0.018-0.03c0.014-0.027,0.029-0.053,0.047-0.078c0.014-0.021,0.027-0.041,0.043-0.06   c0.018-0.021,0.035-0.041,0.055-0.061s0.039-0.038,0.06-0.055c0.02-0.016,0.04-0.031,0.061-0.045   c0.025-0.017,0.05-0.032,0.075-0.046c0.012-0.006,0.021-0.014,0.032-0.019s0.023-0.008,0.035-0.013   c0.026-0.011,0.052-0.021,0.079-0.028c0.025-0.008,0.052-0.015,0.077-0.021c0.025-0.005,0.051-0.008,0.075-0.011   c0.028-0.003,0.056-0.005,0.083-0.005c0.025,0,0.051,0.001,0.077,0.004s0.053,0.006,0.08,0.011   c0.025,0.005,0.051,0.011,0.076,0.019c0.026,0.008,0.052,0.017,0.078,0.027c0.013,0.005,0.025,0.007,0.038,0.013   c0.012,0.006,0.022,0.014,0.034,0.021c0.023,0.013,0.047,0.026,0.069,0.042c0.022,0.015,0.045,0.03,0.065,0.047   c0.021,0.016,0.039,0.034,0.059,0.053c0.02,0.02,0.038,0.039,0.056,0.06c0.016,0.02,0.031,0.041,0.045,0.062   c0.017,0.024,0.032,0.048,0.045,0.073c0.006,0.011,0.015,0.021,0.02,0.033l1.751,3.664h4.281c0.513-1.771,0.056-3.673-1.307-5.016   c-0.072-0.072-0.15-0.135-0.228-0.202c-1.909-1.677-4.763-1.722-6.716-0.133c-0.137,0.11-0.268,0.229-0.393,0.353   c-0.126-0.124-0.256-0.243-0.393-0.353c-1.954-1.589-4.808-1.544-6.717,0.133c-0.076,0.066-0.152,0.13-0.227,0.202   c-1.391,1.371-1.843,3.325-1.278,5.125h3.136L60.956,49.779z"
       id="path18"
       style="fill:#ffffff;fill-opacity:1" /><path
       d="M68.953,53.774c-0.002,0-0.004,0-0.005,0c-0.068-0.001-0.135-0.012-0.198-0.028c-0.018-0.004-0.033-0.011-0.051-0.016   c-0.053-0.018-0.103-0.04-0.15-0.066c-0.013-0.008-0.025-0.013-0.037-0.021c-0.057-0.036-0.107-0.078-0.153-0.128   c-0.012-0.011-0.021-0.024-0.03-0.036c-0.038-0.045-0.071-0.095-0.099-0.147c-0.005-0.008-0.012-0.015-0.017-0.023l-1.225-2.563   l-2.485,5.336c0,0.002-0.001,0.003-0.003,0.005l-0.001,0.003c0,0.001-0.002,0.003-0.002,0.004c-0.029,0.063-0.069,0.12-0.114,0.173   c-0.011,0.014-0.021,0.026-0.033,0.039c-0.047,0.049-0.099,0.096-0.158,0.133c0,0,0,0,0,0.001   c-0.046,0.028-0.096,0.053-0.148,0.072c-0.008,0.003-0.018,0.002-0.025,0.005c-0.084,0.028-0.17,0.046-0.259,0.047   c-0.001,0-0.001,0-0.002,0s-0.001,0-0.001,0c-0.071,0-0.145-0.013-0.216-0.032c-0.021-0.006-0.04-0.014-0.06-0.021   c-0.023-0.009-0.047-0.014-0.069-0.023c-0.033-0.016-0.062-0.035-0.091-0.054c-0.012-0.008-0.023-0.014-0.034-0.021   c-0.061-0.042-0.112-0.092-0.157-0.146c-0.011-0.012-0.02-0.025-0.028-0.037c-0.044-0.06-0.082-0.123-0.108-0.192   c0-0.003-0.002-0.004-0.003-0.006l-0.002-0.005c0,0,0-0.001-0.001-0.002l-1.444-3.875l-0.703,1.306   c-0.004,0.008-0.011,0.013-0.015,0.021c-0.031,0.052-0.066,0.102-0.108,0.146c-0.005,0.007-0.009,0.015-0.015,0.02   c-0.046,0.047-0.098,0.085-0.153,0.119c-0.015,0.01-0.031,0.018-0.048,0.026c-0.043,0.023-0.088,0.042-0.135,0.058   c-0.019,0.005-0.035,0.012-0.054,0.016c-0.06,0.015-0.122,0.024-0.188,0.025c-0.003,0-0.005,0.001-0.007,0.001   c-0.001,0-0.002-0.001-0.002-0.001h-2.772c0.175,0.235,0.366,0.466,0.585,0.682l6.033,5.986c0.631,0.625,1.662,0.625,2.292,0   l6.033-5.986c0.253-0.25,0.474-0.516,0.669-0.791h-3.999C68.955,53.774,68.954,53.774,68.953,53.774z"
       id="path20"
       style="fill:#ffffff;fill-opacity:1" /><path
       d="M79.378,48.954h10.105c0.604,0,1.093-0.489,1.093-1.093c0-0.603-0.489-1.092-1.093-1.092H79.378   c-0.604,0-1.093,0.489-1.093,1.092C78.285,48.464,78.774,48.954,79.378,48.954z"
       id="path22"
       style="fill:#ffffff;fill-opacity:1" /><path
       d="M79.378,54.415h10.105c0.604,0,1.093-0.488,1.093-1.092s-0.489-1.093-1.093-1.093H79.378c-0.604,0-1.093,0.489-1.093,1.093   S78.774,54.415,79.378,54.415z"
       id="path24"
       style="fill:#ffffff;fill-opacity:1" /><path
       d="M79.378,59.878h10.105c0.604,0,1.093-0.489,1.093-1.093c0-0.603-0.489-1.093-1.093-1.093H79.378   c-0.604,0-1.093,0.49-1.093,1.093C78.285,59.389,78.774,59.878,79.378,59.878z"
       id="path26"
       style="fill:#ffffff;fill-opacity:1" /></g><text
     x="0"
     y="115"
     fill="#000000"
     font-size="5px"
     font-weight="bold"
     font-family="'Helvetica Neue', Helvetica, Arial-Unicode, Arial, Sans-serif"
     id="text28">Created by Wilson Joseph</text>
<text
     x="0"
     y="120"
     fill="#000000"
     font-size="5px"
     font-weight="bold"
     font-family="'Helvetica Neue', Helvetica, Arial-Unicode, Arial, Sans-serif"
     id="text30">from the Noun Project</text>
</svg>