<?xml version="1.0" encoding="UTF-8" standalone="no"?>
<svg
   xmlns:dc="http://purl.org/dc/elements/1.1/"
   xmlns:cc="http://creativecommons.org/ns#"
   xmlns:rdf="http://www.w3.org/1999/02/22-rdf-syntax-ns#"
   xmlns:svg="http://www.w3.org/2000/svg"
   xmlns="http://www.w3.org/2000/svg"
   xmlns:sodipodi="http://sodipodi.sourceforge.net/DTD/sodipodi-0.dtd"
   xmlns:inkscape="http://www.inkscape.org/namespaces/inkscape"
   viewBox="0 0 430.16251 63.775002"
   height="63.775002"
   width="430.16251"
   xml:space="preserve"
   version="1.1"
   id="svg2"
   inkscape:version="0.91 r13725"
   sodipodi:docname="MRC_BNDU_Oxford_grouped.svg"
   inkscape:export-filename="/home/amorley/Documents/Admin/Applications/SSIFellowApp/slides/img/oxmrclogo.png"
   inkscape:export-xdpi="600"
   inkscape:export-ydpi="600"><sodipodi:namedview
     pagecolor="#ffffff"
     bordercolor="#666666"
     borderopacity="1"
     objecttolerance="10"
     gridtolerance="10"
     guidetolerance="10"
     inkscape:pageopacity="0"
     inkscape:pageshadow="2"
     inkscape:window-width="867"
     inkscape:window-height="480"
     id="namedview130"
     showgrid="false"
     inkscape:zoom="0.74855431"
     inkscape:cx="215.08125"
     inkscape:cy="31.887501"
     inkscape:window-x="0"
     inkscape:window-y="75"
     inkscape:window-maximized="0"
     inkscape:current-layer="svg2" /><metadata
     id="metadata8"><rdf:RDF><cc:Work
         rdf:about=""><dc:format>image/svg+xml</dc:format><dc:type
           rdf:resource="http://purl.org/dc/dcmitype/StillImage" /><dc:title></dc:title></cc:Work></rdf:RDF></metadata><defs
     id="defs6" /><g
     transform="matrix(1.25,0,0,-1.25,0,63.775)"
     id="g10"><g
       id="g4839"><path
         id="path14"
         style="fill:#0f1f47;fill-opacity:1;fill-rule:nonzero;stroke:none"
         d="m 178.773,0.00117188 165.353,0 0,51.02300012 -165.353,0 0,-51.02300012 z" /><g
         id="g4753"><g
           id="g4730"><g
             id="g4583"><path
               d="m 243.541,19.2117 c 0,4.2883 -2.079,7.2801 -5.585,7.2801 -3.813,0 -5.59,-3.593 -5.59,-7.2801 0,-4.2844 2.08,-7.2738 5.59,-7.2738 3.811,0 5.585,3.5918 5.585,7.2738 l 0,0 z m 2.602,0.0856 c 0,-4.7153 -3.64,-8.1391 -8.187,-8.1391 -4.637,0 -8.189,3.4617 -8.189,7.9707 0,4.7184 3.639,8.1422 8.189,8.1422 4.635,0 8.187,-3.4664 8.187,-7.9738 l 0,0"
               style="fill:#ffffff;fill-opacity:1;fill-rule:nonzero;stroke:none"
               id="path16" /><path
               d="m 293.532,19.2117 c 0,4.2883 -2.081,7.2801 -5.588,7.2801 -3.812,0 -5.588,-3.593 -5.588,-7.2801 0,-4.2844 2.08,-7.2738 5.588,-7.2738 3.811,0 5.588,3.5918 5.588,7.2738 l 0,0 z m 2.599,0.0856 c 0,-4.7153 -3.639,-8.1391 -8.187,-8.1391 -4.636,0 -8.188,3.4617 -8.188,7.9707 0,4.7184 3.639,8.1422 8.188,8.1422 4.635,0 8.187,-3.4664 8.187,-7.9738 l 0,0"
               style="fill:#ffffff;fill-opacity:1;fill-rule:nonzero;stroke:none"
               id="path18" /><path
               d="m 306.051,16.6176 c -0.911,1.2996 -1.258,1.7734 -2.383,1.7734 l -1.214,0 0,-5.2851 c 0,-0.4332 0.174,-0.6465 0.652,-0.7348 l 1.775,-0.3891 0,-0.5664 -6.975,0 0,0.5664 1.604,0.3891 c 0.475,0.1273 0.649,0.3016 0.649,0.7348 l 0,12.2164 c 0,0.434 -0.174,0.6058 -0.649,0.7347 l -1.604,0.3907 0,0.5652 6.801,0 c 1.432,0 2.427,-0.1316 3.25,-0.4328 1.689,-0.652 2.641,-2.2574 2.641,-3.7692 0,-1.9086 -1.429,-3.5136 -3.812,-4.0699 l 0,-0.0867 c 0.478,-0.2211 0.737,-0.523 2.427,-2.7355 l 2.122,-2.8129 c 0.303,-0.4332 0.694,-0.6903 1.171,-0.7797 l 1.559,-0.3442 0,-0.5664 -3.725,0 c -0.433,0 -0.651,0.1321 -1.04,0.6543 l -3.249,4.5477 0,0 z m -3.597,2.5113 1.95,0 c 2.947,0 3.597,1.859 3.597,3.6383 0,1.3426 -0.607,2.5988 -1.993,3.2039 -0.737,0.3043 -1.43,0.3043 -2.383,0.3043 l -1.171,0 0,-7.1465"
               style="fill:#ffffff;fill-opacity:1;fill-rule:nonzero;stroke:none"
               id="path20" /><path
               d="m 275.511,21.684 0.651,0 0,-5.1996 -0.651,0 -0.39,1.559 c -0.131,0.5656 -0.476,0.7804 -0.996,0.7804 l -3.769,0 0,-5.7179 c 0,-0.4332 0.173,-0.6465 0.65,-0.7348 l 1.776,-0.3891 0,-0.5664 -6.973,0 0,0.5664 1.602,0.3891 c 0.477,0.1273 0.651,0.3016 0.651,0.7348 l 0,12.2164 c 0,0.434 -0.174,0.6058 -0.651,0.7347 l -1.602,0.3907 0,0.5652 11.781,0 0,-3.9031 -0.649,0 -0.736,2.3429 c -0.173,0.6043 -0.434,0.8227 -0.954,0.8227 l -4.895,0 0,-6.7141 3.769,0 c 0.52,0 0.823,0.2145 0.996,0.7805 l 0.39,1.3422 0,0"
               style="fill:#ffffff;fill-opacity:1;fill-rule:nonzero;stroke:none"
               id="path22" /><path
               d="m 319.869,26.2754 0,-13.427 c 0,-0.5656 0.129,-0.6984 0.694,-0.6984 l 1.905,0 c 1.82,0 3.162,0.2656 4.115,0.9559 1.604,1.1683 2.34,3.291 2.34,5.9785 0,2.6422 -0.736,5.2383 -2.902,6.4961 -0.909,0.5211 -2.08,0.6949 -3.9,0.6949 l -2.252,0 0,0 z m -4.549,-14.8598 0,0.5664 1.603,0.3891 c 0.477,0.1273 0.649,0.3016 0.649,0.7348 l 0,12.2164 c 0,0.434 -0.172,0.6058 -0.649,0.7347 l -1.603,0.3907 0,0.5652 7.322,0 c 1.992,0 3.422,-0.2602 4.592,-0.7805 2.946,-1.3437 4.289,-4.2453 4.289,-7.1035 0,-2.7766 -1.041,-5.3723 -3.682,-6.7578 -1.213,-0.6531 -2.903,-0.9555 -5.112,-0.9555 l -7.409,0 0,0"
               style="fill:#ffffff;fill-opacity:1;fill-rule:nonzero;stroke:none"
               id="path24" /><path
               d="m 252.25,11.982 0,-0.5664 -5.501,0 0,0.5664 1.384,0.3442 c 0.523,0.1332 0.867,0.3027 1.213,0.6914 l 4.766,5.9785 -4.766,6.3262 c -0.302,0.434 -0.69,0.6488 -1.169,0.7793 l -1.3,0.3461 0,0.5652 6.845,0 0,-0.5652 -1.472,-0.3024 c -0.521,-0.0883 -0.391,-0.3031 -0.131,-0.6508 l 3.509,-5.025 0.086,0 3.596,5.025 c 0.26,0.3477 0.348,0.4766 -0.13,0.6071 l -1.386,0.3461 0,0.5652 5.501,0 0,-0.5652 -1.386,-0.3461 c -0.518,-0.1305 -0.866,-0.302 -1.213,-0.6918 l -4.505,-5.6785 5.025,-6.6254 c 0.305,-0.4332 0.693,-0.6465 1.17,-0.7797 l 1.301,-0.3442 0,-0.5664 -6.846,0 0,0.5664 1.473,0.3008 c 0.52,0.0883 0.434,0.257 0.173,0.6106 l -3.812,5.3703 -0.086,0 -3.856,-5.3336 c -0.26,-0.3457 -0.346,-0.4707 0.13,-0.6039 l 1.387,-0.3442 0,0"
               style="fill:#ffffff;fill-opacity:1;fill-rule:nonzero;stroke:none"
               id="path26" /></g><g
             id="g4591"><path
               d="m 301.832,33.634 c -1.912,0 -3.311,1.5789 -3.311,3.7996 0,2.2812 1.384,3.8668 3.379,3.8668 1.933,0 3.299,-1.5684 3.299,-3.7984 0,-2.2875 -1.368,-3.868 -3.367,-3.868 z m -0.003,6.9121 c -1.448,0 -2.388,-1.2231 -2.388,-3.0656 0,-1.8356 1.047,-3.0856 2.435,-3.0856 1.544,0 2.403,1.3141 2.403,3.1442 0,1.8023 -1.014,3.007 -2.45,3.007"
               style="fill:#ffffff;fill-opacity:1;fill-rule:nonzero;stroke:none"
               id="path46" /><path
               d="m 308.51,40.4242 0,-2.4383 2.856,0 0,-0.7179 -2.856,0 0,-3.4946 -0.882,0 0,7.3871 3.923,0 0,-0.7363 -3.041,0"
               style="fill:#ffffff;fill-opacity:1;fill-rule:nonzero;stroke:none"
               id="path48" /></g><g
             id="g4595"><path
               d="m 235.841,34.352 c -0.431,-0.4301 -1.077,-0.718 -1.979,-0.718 -0.786,0 -1.514,0.2473 -2.008,0.7406 -0.672,0.6723 -0.641,1.5309 -0.641,2.4481 l 0,4.3378 0.885,0 0,-4.6593 c 0,-0.5907 -0.019,-1.1649 0.437,-1.6203 0.316,-0.3149 0.801,-0.486 1.361,-0.486 0.547,0 0.986,0.1887 1.259,0.4625 0.507,0.5063 0.475,1.059 0.475,2.3942 l 0,3.9089 0.871,0 0,-3.68 c 0,-1.3981 0.057,-2.4117 -0.66,-3.1285"
               style="fill:#ffffff;fill-opacity:1;fill-rule:nonzero;stroke:none"
               id="path28" /><path
               d="m 243.691,33.773 -3.559,6.0559 0.022,-6.0559 -0.812,0 0,7.3875 0.906,0 3.572,-6.089 -0.022,6.089 0.813,0 0,-7.3875 -0.92,0"
               style="fill:#ffffff;fill-opacity:1;fill-rule:nonzero;stroke:none"
               id="path30" /><path
               d="m 247.691,33.7734 0.88906,0 0,7.38711 -0.88906,0 0,-7.38711 z"
               style="fill:#ffffff;fill-opacity:1;fill-rule:nonzero;stroke:none"
               id="path32" /><path
               d="m 254.107,33.7734 -1.018,0 -2.547,7.3871 0.927,0 2.155,-6.5218 2.218,6.5218 0.86,0 -2.595,-7.3871"
               style="fill:#ffffff;fill-opacity:1;fill-rule:nonzero;stroke:none"
               id="path34" /><path
               d="m 258.713,33.7734 0,7.3871 4.017,0 0,-0.7363 -3.146,0 0,-2.4383 2.953,0 0,-0.7179 -2.953,0 0,-2.736 3.233,0 0,-0.7586 -4.104,0"
               style="fill:#ffffff;fill-opacity:1;fill-rule:nonzero;stroke:none"
               id="path36" /><path
               d="m 269.24,33.7734 -0.848,1.9153 c -0.526,1.1773 -0.765,1.298 -1.837,1.298 l -0.514,0 0,-3.2133 -0.872,0 0,7.3871 1.594,0 c 0.986,0 1.729,0.0063 2.311,-0.5746 0.369,-0.3691 0.576,-0.8609 0.576,-1.4769 0,-0.5137 -0.15,-0.941 -0.459,-1.2695 -0.266,-0.2832 -0.706,-0.5321 -1.185,-0.5832 0.261,-0.0145 0.475,-0.1547 0.615,-0.295 0.201,-0.2008 0.348,-0.5054 0.564,-0.9883 l 0.981,-2.1996 -0.926,0 z m -0.806,6.2754 c -0.423,0.4235 -0.973,0.4039 -1.575,0.4039 l -0.818,0 0,-2.7586 0.293,0 c 0.746,0 1.549,-0.0386 2.056,0.468 0.244,0.2445 0.381,0.5883 0.381,0.9633 0,0.4152 -0.163,0.7492 -0.337,0.9234"
               style="fill:#ffffff;fill-opacity:1;fill-rule:nonzero;stroke:none"
               id="path38" /><path
               d="m 278.795,33.7734 0.89023,0 0,7.38711 -0.89023,0 0,-7.38711 z"
               style="fill:#ffffff;fill-opacity:1;fill-rule:nonzero;stroke:none"
               id="path40" /><path
               d="m 284.755,40.4242 0,-6.6508 -0.887,0 0,6.6508 -2.197,0 0,0.7363 5.274,0 0,-0.7363 -2.19,0"
               style="fill:#ffffff;fill-opacity:1;fill-rule:nonzero;stroke:none"
               id="path42" /><path
               d="m 291.197,36.6934 0,-2.92 -0.878,0 0,2.92 -2.345,4.4671 1.016,0 1.821,-3.464 1.768,3.464 0.963,0 -2.345,-4.4671"
               style="fill:#ffffff;fill-opacity:1;fill-rule:nonzero;stroke:none"
               id="path44" /><path
               d="m 271.957,39.3586 c 0,1.1352 0.913,1.943 2.247,1.943 1.351,0 1.999,-0.6977 2.066,-0.77 l -0.434,-0.5242 c -0.166,0.1274 -0.757,0.5617 -1.573,0.5617 -0.943,0 -1.465,-0.4921 -1.465,-1.1609 0,-0.3238 0.133,-0.5566 0.346,-0.7477 0.254,-0.2273 0.623,-0.396 1.021,-0.5789 0.496,-0.2277 1.174,-0.4836 1.629,-0.9554 0.315,-0.3266 0.553,-0.7508 0.553,-1.3328 0,-1.2289 -0.853,-2.1645 -2.386,-2.1645 -1.307,0 -2.131,0.7195 -2.209,0.7914 l 0.407,0.5996 c 0.21,-0.1562 1.03,-0.641 1.78,-0.641 1.112,0 1.528,0.6082 1.528,1.3422 0,0.3414 -0.155,0.6156 -0.385,0.8363 -0.345,0.3321 -0.866,0.5543 -1.366,0.7824 -0.497,0.227 -0.975,0.4649 -1.313,0.8204 -0.224,0.2343 -0.446,0.6175 -0.446,1.1984"
               style="fill:#ffffff;fill-opacity:1;fill-rule:nonzero;stroke:none"
               id="path50" /></g></g><g
           id="g4667"><path
             id="path52"
             style="fill:#ffffff;fill-opacity:1;fill-rule:nonzero;stroke:none"
             d="m 204.062,31.1441 c 0,0.6532 -0.222,1.1805 -0.7,1.4614 -0.3,0.1761 -0.705,0.234 -1.206,0.234 l -3.642,3e-4 0,-7.3527 3.963,0 c 0.915,0 1.451,-0.2058 1.498,-1.0254 l 0.087,0 0,6.6824" /><path
             id="path54"
             style="fill:#ffffff;fill-opacity:1;fill-rule:nonzero;stroke:none"
             d="m 204.57,31.1441 c 0,0.6532 0.222,1.1805 0.7,1.4614 0.3,0.1761 0.706,0.234 1.207,0.234 l 3.667,3e-4 0,-7.3527 -3.989,0 c -0.914,0 -1.45,-0.2058 -1.498,-1.0254 l -0.087,0 0,6.6824" /><path
             id="path56"
             style="fill:#ffffff;fill-opacity:1;fill-rule:nonzero;stroke:none"
             d="m 210.91,32.2961 c 0,0 0,-7.2957 0,-7.7727 -0.463,0 -5.636,0 -5.636,0 l -0.064,-0.1586 c -0.098,-0.2425 -0.274,-0.4668 -0.888,-0.4668 -0.615,0 -0.789,0.2243 -0.888,0.4668 l -0.064,0.1586 c 0,0 -5.157,0 -5.62,0 0,0.477 0,7.7727 0,7.7727 l -0.509,0 0,-0.2371 -0.488,0.15 c -0.057,0.1918 -0.232,0.3332 -0.442,0.3332 -0.255,0 -0.463,-0.2078 -0.463,-0.4629 0,-0.2566 0.208,-0.4637 0.463,-0.4637 0.112,0 0.213,0.041 0.293,0.1074 l 0.637,-0.1957 0,-0.6246 -0.479,0.0856 c -0.071,0.1648 -0.235,0.2812 -0.426,0.2812 -0.255,0 -0.462,-0.2074 -0.462,-0.4629 0,-0.2562 0.207,-0.4628 0.462,-0.4628 0.133,0 0.251,0.0554 0.335,0.1441 l 0.57,-0.1016 0,-0.6375 -0.501,0.0227 c -0.08,0.1344 -0.227,0.2262 -0.395,0.2262 -0.255,0 -0.463,-0.2082 -0.463,-0.4633 0,-0.2563 0.208,-0.4629 0.463,-0.4629 0.154,0 0.29,0.0754 0.374,0.1918 l 0.522,-0.0231 0,-0.6925 -0.511,-0.018 c -0.084,0.1172 -0.221,0.1949 -0.376,0.1949 -0.256,0 -0.463,-0.2074 -0.463,-0.4629 0,-0.2558 0.207,-0.4629 0.463,-0.4629 0.167,0 0.312,0.0895 0.394,0.2227 l 0.493,0.0176 0,-0.6375 -0.559,-0.0965 c -0.085,0.0898 -0.204,0.1469 -0.337,0.1469 -0.255,0 -0.463,-0.2075 -0.463,-0.4629 0,-0.2555 0.208,-0.4625 0.463,-0.4625 0.19,0 0.353,0.114 0.424,0.2781 l 0.472,0.0805 0,-0.6258 -0.612,-0.1867 c -0.08,0.066 -0.181,0.107 -0.293,0.107 -0.255,0 -0.462,-0.207 -0.462,-0.4629 0,-0.2559 0.207,-0.4625 0.462,-0.4625 0.21,0 0.386,0.1402 0.442,0.332 l 0.463,0.141 0,-0.6046 -0.676,-0.2922 c -0.073,0.0488 -0.16,0.0765 -0.254,0.0765 -0.255,0 -0.463,-0.2066 -0.463,-0.4629 0,-0.255 0.208,-0.4628 0.463,-0.4628 0.228,0 0.417,0.1652 0.455,0.3824 l 0.475,0.2047 0,-0.5528 c 0,0 5.546,0 5.816,0 0.236,-0.4125 0.645,-0.6265 1.265,-0.6265 0.62,0 1.03,0.214 1.265,0.6265 0.27,0 5.831,0 5.831,0 l 0,8.2805 -0.508,0" /><path
             id="path58"
             style="fill:#ffffff;fill-opacity:1;fill-rule:nonzero;stroke:none"
             d="m 200.496,34.8883 c -1.176,0 -2.128,-0.1832 -2.128,-0.4086 0,-0.2258 0.952,-0.4082 2.128,-0.4082 1.175,0 2.128,0.1824 2.128,0.4082 0,0.2254 -0.953,0.4086 -2.128,0.4086" /><path
             id="path60"
             style="fill:#ffffff;fill-opacity:1;fill-rule:nonzero;stroke:none"
             d="m 203.426,37.4375 -1.228,-0.8633 -0.011,-0.0879 0.292,-0.1308 c 0.059,-0.0289 0.059,-0.075 0.029,-0.1035 l -0.772,-0.6508 -0.073,0.0058 -0.547,0.8063 c -0.038,0.0519 -0.024,0.1043 0.042,0.1148 l 0.367,0.0602 0,0.0922 -0.951,1.3445 -0.157,0 -0.951,-1.3445 0,-0.0922 0.367,-0.0602 c 0.065,-0.0105 0.08,-0.0629 0.042,-0.1148 l -0.547,-0.8063 -0.073,-0.0058 -0.721,0.6508 c -0.029,0.0285 -0.029,0.0746 0.029,0.1035 l 0.291,0.1308 -0.01,0.0879 -1.28,0.8633 -0.103,-0.0406 0.751,-2.2957 c 0.382,0.1718 1.257,0.2922 2.283,0.2968 1.026,-0.0046 1.902,-0.125 2.283,-0.2968 l 0.752,2.2957 -0.104,0.0406" /><path
             id="path62"
             style="fill:#ffffff;fill-opacity:1;fill-rule:nonzero;stroke:none"
             d="m 204.313,19.4922 c -1.176,0 -2.129,-0.1832 -2.129,-0.4078 0,-0.2258 0.953,-0.4086 2.129,-0.4086 1.175,0 2.128,0.1828 2.128,0.4086 0,0.2246 -0.953,0.4078 -2.128,0.4078" /><path
             id="path64"
             style="fill:#ffffff;fill-opacity:1;fill-rule:nonzero;stroke:none"
             d="m 207.243,22.0426 -1.228,-0.8641 -0.011,-0.0879 0.292,-0.1308 c 0.058,-0.0293 0.058,-0.075 0.029,-0.1028 l -0.771,-0.6519 -0.074,0.0066 -0.546,0.8055 c -0.038,0.0527 -0.025,0.1043 0.042,0.1156 l 0.366,0.0598 0,0.0926 -0.951,1.3449 -0.156,0 -0.952,-1.3449 0,-0.0926 0.367,-0.0598 c 0.066,-0.0113 0.079,-0.0629 0.042,-0.1156 l -0.547,-0.8055 -0.074,-0.0066 -0.719,0.6519 c -0.03,0.0278 -0.03,0.0735 0.028,0.1028 l 0.292,0.1308 -0.011,0.0879 -1.28,0.8641 -0.103,-0.0406 0.752,-2.2965 c 0.381,0.1715 1.257,0.2922 2.283,0.2968 1.025,-0.0046 1.902,-0.1253 2.283,-0.2968 l 0.751,2.2965 -0.104,0.0406" /><path
             id="path66"
             style="fill:#ffffff;fill-opacity:1;fill-rule:nonzero;stroke:none"
             d="m 208.122,34.8883 c -1.177,0 -2.13,-0.1832 -2.13,-0.4086 0,-0.2258 0.953,-0.4082 2.13,-0.4082 1.174,0 2.127,0.1824 2.127,0.4082 0,0.2254 -0.953,0.4086 -2.127,0.4086" /><path
             id="path68"
             style="fill:#ffffff;fill-opacity:1;fill-rule:nonzero;stroke:none"
             d="m 211.051,37.4375 -1.228,-0.8633 -0.011,-0.0879 0.292,-0.1308 c 0.058,-0.0289 0.058,-0.075 0.029,-0.1035 l -0.772,-0.6508 -0.073,0.0058 -0.547,0.8063 c -0.037,0.0519 -0.023,0.1043 0.042,0.1148 l 0.367,0.0602 0,0.0922 -0.952,1.3445 -0.156,0 -0.951,-1.3445 0,-0.0922 0.367,-0.0602 c 0.066,-0.0105 0.08,-0.0629 0.042,-0.1148 l -0.546,-0.8063 -0.074,-0.0058 -0.721,0.6593 c -0.029,0.0282 -0.029,0.075 0.029,0.1032 l 0.292,0.1226 -0.01,0.0879 -1.281,0.8633 -0.104,-0.0406 0.752,-2.2957 c 0.381,0.1718 1.258,0.2922 2.284,0.2968 1.026,-0.0046 1.901,-0.125 2.282,-0.2968 l 0.752,2.2957 -0.104,0.0406" /><g
             id="g4607"><path
               d="m 199.375,30.8773 c 0,-0.1445 0.036,-0.1722 0.114,-0.1722 0.139,0 0.28,0.1543 0.28,0.4414 0,0.348 -0.177,0.4457 -0.314,0.4457 -0.038,0 -0.059,-0.0055 -0.07,-0.0117 -0.009,-0.0035 -0.01,-0.0407 -0.01,-0.0809 l 0,-0.6223 z m 0.08,0.7954 c 0.199,0 0.365,-0.0383 0.473,-0.1438 0.076,-0.0734 0.139,-0.193 0.139,-0.332 0,-0.4039 -0.306,-0.5774 -0.68,-0.5774 l -0.418,0 0,0.0629 c 0.117,0.0102 0.131,0.0219 0.131,0.1961 l 0,0.5352 c 0,0.1754 -0.014,0.1871 -0.119,0.1961 l 0,0.0629 0.474,0"
               style="fill:#0f1f47;fill-opacity:1;fill-rule:nonzero;stroke:none"
               id="path70" /><path
               d="m 200.51,31.1871 c 0,-0.2937 0.11,-0.5078 0.269,-0.5078 0.139,0 0.215,0.1348 0.215,0.4281 0,0.3258 -0.116,0.5055 -0.256,0.5055 -0.124,0 -0.228,-0.1422 -0.228,-0.4258 z m 0.786,-0.0277 c 0,-0.3473 -0.237,-0.5641 -0.547,-0.5641 -0.328,0 -0.541,0.2383 -0.541,0.536 0,0.2628 0.176,0.5664 0.563,0.5664 0.296,0 0.525,-0.2172 0.525,-0.5383"
               style="fill:#0f1f47;fill-opacity:1;fill-rule:nonzero;stroke:none"
               id="path72" /><path
               d="m 202.728,31.6727 0,-0.0629 c -0.124,-0.0118 -0.131,-0.0176 -0.125,-0.1883 l 0.015,-0.543 c 0.006,-0.1797 0.009,-0.1844 0.126,-0.1961 l 0,-0.0629 -0.508,0 0,0.0629 c 0.122,0.0117 0.126,0.0164 0.125,0.1961 l -0.005,0.5707 -0.007,0 -0.312,-0.8121 -0.088,0 -0.297,0.7555 -0.003,0 -0.011,-0.3598 c -0.005,-0.1394 -0.003,-0.2168 0.003,-0.2676 0.007,-0.0601 0.043,-0.0742 0.147,-0.0828 l 0,-0.0629 -0.4,0 0,0.0629 c 0.078,0.0071 0.109,0.0227 0.119,0.0828 0.008,0.0508 0.018,0.1368 0.026,0.284 l 0.017,0.327 c 0.012,0.2043 -0.001,0.2218 -0.129,0.2336 l 0,0.0629 0.381,0 0.283,-0.6414 0.248,0.6414 0.395,0"
               style="fill:#0f1f47;fill-opacity:1;fill-rule:nonzero;stroke:none"
               id="path74" /><path
               d="m 203.253,30.8785 c 0,-0.1742 0.014,-0.1859 0.125,-0.1961 l 0,-0.0629 -0.525,0 0,0.0629 c 0.112,0.0102 0.126,0.0219 0.126,0.1961 l 0,0.5352 c 0,0.1754 -0.014,0.1871 -0.126,0.1961 l 0,0.0629 0.525,0 0,-0.0629 c -0.111,-0.009 -0.125,-0.0207 -0.125,-0.1961 l 0,-0.5352"
               style="fill:#0f1f47;fill-opacity:1;fill-rule:nonzero;stroke:none"
               id="path76" /><path
               d="m 200.644,28.6637 -0.14,0 -0.599,0.7644 -0.004,0 0,-0.2976 c 0,-0.1707 0.007,-0.2594 0.013,-0.3098 0.008,-0.057 0.052,-0.0781 0.159,-0.0828 l 0,-0.0637 -0.404,0 0,0.0637 c 0.071,0.0039 0.113,0.0258 0.122,0.0828 0.006,0.0504 0.013,0.1391 0.013,0.3098 l 0,0.2976 c 0,0.1203 -0.004,0.1418 -0.036,0.1867 -0.024,0.034 -0.064,0.045 -0.123,0.05 l 0,0.0633 0.358,0 0.539,-0.6726 0.004,0 0,0.2175 c 0,0.17 -0.006,0.259 -0.013,0.309 -0.008,0.0571 -0.053,0.0778 -0.158,0.0828 l 0,0.0633 0.412,0 0,-0.0633 c -0.08,-0.0031 -0.122,-0.0257 -0.131,-0.0828 -0.006,-0.05 -0.012,-0.139 -0.012,-0.309 l 0,-0.6093"
               style="fill:#0f1f47;fill-opacity:1;fill-rule:nonzero;stroke:none"
               id="path78" /><path
               d="m 201.3,28.6637 c -0.112,0.2914 -0.264,0.6918 -0.322,0.8441 -0.054,0.1395 -0.086,0.1477 -0.164,0.157 l 0,0.0633 0.523,0 0,-0.0633 -0.055,-0.0066 c -0.06,-0.0062 -0.06,-0.0203 -0.042,-0.0777 0.029,-0.0903 0.157,-0.4102 0.217,-0.5688 0.05,0.1375 0.155,0.4473 0.18,0.5238 0.034,0.0989 0.024,0.1165 -0.049,0.1243 l -0.048,0.005 0,0.0633 0.393,0 0,-0.0633 c -0.093,-0.0109 -0.116,-0.0195 -0.18,-0.1668 -0.009,-0.023 -0.207,-0.5039 -0.329,-0.8343 l -0.124,0"
               style="fill:#0f1f47;fill-opacity:1;fill-rule:nonzero;stroke:none"
               id="path80" /><path
               d="m 202.031,29.009 c 0.034,-0.0945 0.13,-0.2746 0.289,-0.2746 0.084,0 0.148,0.0554 0.148,0.1605 0,0.0957 -0.062,0.1496 -0.161,0.1949 l -0.025,0.0114 c -0.133,0.0613 -0.283,0.1461 -0.283,0.3191 0,0.1832 0.132,0.3324 0.387,0.3324 0.05,0 0.102,-0.0066 0.149,-0.0199 0.037,-0.0098 0.064,-0.0156 0.084,-0.023 0.006,-0.0625 0.018,-0.1418 0.036,-0.2524 l -0.072,-0.0109 c -0.036,0.1066 -0.092,0.2215 -0.22,0.2215 -0.083,0 -0.141,-0.0625 -0.141,-0.1407 0,-0.0808 0.063,-0.1281 0.167,-0.175 l 0.036,-0.0168 c 0.149,-0.0679 0.277,-0.1503 0.277,-0.3398 0,-0.1992 -0.16,-0.3453 -0.411,-0.3453 -0.066,0 -0.132,0.0133 -0.176,0.0277 -0.048,0.016 -0.083,0.0289 -0.101,0.0387 -0.014,0.0746 -0.035,0.1621 -0.054,0.2703 l 0.071,0.0219"
               style="fill:#0f1f47;fill-opacity:1;fill-rule:nonzero;stroke:none"
               id="path82" /><path
               d="m 199.923,26.9891 c 0,-0.1746 0.013,-0.186 0.124,-0.1961 l 0,-0.0629 -0.525,0 0,0.0629 c 0.112,0.0101 0.125,0.0215 0.125,0.1961 l 0,0.5347 c 0,0.1754 -0.013,0.1867 -0.125,0.1965 l 0,0.0629 0.525,0 0,-0.0629 c -0.111,-0.0098 -0.124,-0.0211 -0.124,-0.1965 l 0,-0.5347"
               style="fill:#0f1f47;fill-opacity:1;fill-rule:nonzero;stroke:none"
               id="path84" /><path
               d="m 200.564,26.9684 c 0,-0.0844 0.003,-0.125 0.033,-0.1399 0.026,-0.0133 0.063,-0.014 0.113,-0.014 0.052,0 0.122,0.0043 0.156,0.0468 0.026,0.0309 0.053,0.0746 0.079,0.1602 l 0.07,-0.0113 c -0.01,-0.0614 -0.044,-0.2297 -0.058,-0.2801 l -0.804,0 0,0.0629 c 0.123,0.0101 0.136,0.0215 0.136,0.1961 l 0,0.5347 c 0,0.1754 -0.013,0.1867 -0.122,0.1965 l 0,0.0629 0.527,0 0,-0.0629 c -0.116,-0.0098 -0.13,-0.0211 -0.13,-0.1965 l 0,-0.5554"
               style="fill:#0f1f47;fill-opacity:1;fill-rule:nonzero;stroke:none"
               id="path86" /><path
               d="m 201.469,26.9684 c 0,-0.0844 0.004,-0.125 0.032,-0.1399 0.026,-0.0133 0.063,-0.014 0.113,-0.014 0.053,0 0.122,0.0043 0.157,0.0468 0.025,0.0309 0.053,0.0746 0.079,0.1602 l 0.069,-0.0113 c -0.009,-0.0614 -0.044,-0.2297 -0.058,-0.2801 l -0.804,0 0,0.0629 c 0.124,0.0101 0.136,0.0215 0.136,0.1961 l 0,0.5347 c 0,0.1754 -0.012,0.1867 -0.121,0.1965 l 0,0.0629 0.526,0 0,-0.0629 c -0.117,-0.0098 -0.129,-0.0211 -0.129,-0.1965 l 0,-0.5554"
               style="fill:#0f1f47;fill-opacity:1;fill-rule:nonzero;stroke:none"
               id="path88" /><path
               d="m 202.243,26.7188 c -0.112,0.2914 -0.264,0.6917 -0.322,0.8441 -0.054,0.1391 -0.087,0.1476 -0.164,0.1574 l 0,0.0629 0.524,0 0,-0.0629 -0.056,-0.007 c -0.059,-0.0063 -0.059,-0.0203 -0.041,-0.0778 0.029,-0.0902 0.157,-0.4097 0.216,-0.5679 0.05,0.1375 0.155,0.4465 0.181,0.523 0.034,0.0989 0.024,0.1164 -0.049,0.1242 l -0.048,0.0055 0,0.0629 0.391,0 0,-0.0629 c -0.092,-0.0113 -0.114,-0.0195 -0.178,-0.1672 -0.01,-0.0226 -0.207,-0.5039 -0.329,-0.8343 l -0.125,0"
               style="fill:#0f1f47;fill-opacity:1;fill-rule:nonzero;stroke:none"
               id="path90" /><path
               d="m 206.597,31.6727 0,-0.0629 c -0.124,-0.0118 -0.13,-0.0176 -0.125,-0.1883 l 0.015,-0.543 c 0.006,-0.1797 0.009,-0.1844 0.126,-0.1961 l 0,-0.0629 -0.507,0 0,0.0629 c 0.121,0.0117 0.126,0.0164 0.124,0.1961 l -0.004,0.5707 -0.007,0 -0.313,-0.8121 -0.087,0 -0.297,0.7555 -0.002,0 -0.012,-0.3598 c -0.005,-0.1394 -0.004,-0.2168 0.003,-0.2676 0.006,-0.0601 0.042,-0.0742 0.147,-0.0828 l 0,-0.0629 -0.4,0 0,0.0629 c 0.078,0.0071 0.108,0.0227 0.118,0.0828 0.008,0.0508 0.018,0.1368 0.026,0.284 l 0.017,0.327 c 0.013,0.2043 0,0.2218 -0.128,0.2336 l 0,0.0629 0.38,0 0.284,-0.6414 0.248,0.6414 0.394,0"
               style="fill:#0f1f47;fill-opacity:1;fill-rule:nonzero;stroke:none"
               id="path92" /><path
               d="m 207.123,30.8785 c 0,-0.1742 0.013,-0.1859 0.125,-0.1961 l 0,-0.0629 -0.525,0 0,0.0629 c 0.111,0.0102 0.125,0.0219 0.125,0.1961 l 0,0.5352 c 0,0.1754 -0.014,0.1871 -0.125,0.1961 l 0,0.0629 0.525,0 0,-0.0629 c -0.112,-0.009 -0.125,-0.0207 -0.125,-0.1961 l 0,-0.5352"
               style="fill:#0f1f47;fill-opacity:1;fill-rule:nonzero;stroke:none"
               id="path94" /><path
               d="m 208.329,30.6086 -0.14,0 -0.599,0.7648 -0.004,0 0,-0.2988 c 0,-0.1699 0.007,-0.2586 0.014,-0.3094 0.008,-0.0566 0.051,-0.0777 0.159,-0.0828 l 0,-0.0629 -0.404,0 0,0.0629 c 0.071,0.0039 0.114,0.0262 0.121,0.0828 0.007,0.0508 0.014,0.1395 0.014,0.3094 l 0,0.2988 c 0,0.1196 -0.004,0.1407 -0.036,0.1864 -0.024,0.034 -0.065,0.0449 -0.123,0.05 l 0,0.0629 0.358,0 0.54,-0.6723 0.002,0 0,0.2176 c 0,0.1699 -0.006,0.259 -0.012,0.309 -0.009,0.057 -0.052,0.0777 -0.159,0.0828 l 0,0.0629 0.414,0 0,-0.0629 c -0.082,-0.0035 -0.124,-0.0258 -0.132,-0.0828 -0.006,-0.05 -0.013,-0.1391 -0.013,-0.309 l 0,-0.6094"
               style="fill:#0f1f47;fill-opacity:1;fill-rule:nonzero;stroke:none"
               id="path96" /><path
               d="m 208.801,31.0348 0.207,0 -0.102,0.3093 -0.005,0 -0.1,-0.3093 z m 0.205,-0.3524 0.049,0.0071 c 0.06,0.0078 0.063,0.0238 0.042,0.0824 l -0.058,0.1656 -0.266,0 -0.048,-0.1559 c -0.021,-0.0699 -0.021,-0.0863 0.053,-0.0941 l 0.047,-0.0051 0,-0.0629 -0.378,0 0,0.0629 c 0.083,0.0117 0.108,0.0184 0.161,0.1539 l 0.324,0.8379 0.111,0.0235 0.111,-0.3067 c 0.07,-0.193 0.139,-0.3844 0.2,-0.5492 0.053,-0.141 0.082,-0.1492 0.161,-0.1594 l 0,-0.0629 -0.509,0 0,0.0629"
               style="fill:#0f1f47;fill-opacity:1;fill-rule:nonzero;stroke:none"
               id="path98" /><path
               d="m 206.584,28.934 c 0,-0.1746 0.013,-0.186 0.148,-0.1961 l 0,-0.0637 -0.566,0 0,0.0637 c 0.129,0.0101 0.142,0.0215 0.142,0.1961 l 0,0.7101 -0.027,0 c -0.109,0 -0.153,-0.0203 -0.178,-0.0488 -0.02,-0.0246 -0.04,-0.0664 -0.06,-0.1574 l -0.069,0 c 0.007,0.1363 0.017,0.248 0.02,0.3305 l 0.049,0 c 0.026,-0.0371 0.042,-0.0403 0.085,-0.0403 l 0.647,0 c 0.043,0 0.05,0.0098 0.076,0.0403 l 0.051,0 c 0.001,-0.0676 0.009,-0.2059 0.017,-0.3254 l -0.071,-0.0051 c -0.024,0.0976 -0.042,0.1398 -0.066,0.1676 -0.028,0.0289 -0.082,0.0386 -0.16,0.0386 l -0.038,0 0,-0.7101"
               style="fill:#0f1f47;fill-opacity:1;fill-rule:nonzero;stroke:none"
               id="path100" /><path
               d="m 207.432,28.934 c 0,-0.1746 0.014,-0.186 0.125,-0.1961 l 0,-0.0637 -0.525,0 0,0.0637 c 0.112,0.0101 0.125,0.0215 0.125,0.1961 l 0,0.5348 c 0,0.1753 -0.013,0.1867 -0.125,0.196 l 0,0.0633 0.525,0 0,-0.0633 c -0.111,-0.0093 -0.125,-0.0207 -0.125,-0.196 l 0,-0.5348"
               style="fill:#0f1f47;fill-opacity:1;fill-rule:nonzero;stroke:none"
               id="path102" /><path
               d="m 207.994,29.2422 c 0,-0.2934 0.11,-0.5078 0.269,-0.5078 0.14,0 0.215,0.1347 0.215,0.4281 0,0.3258 -0.116,0.5055 -0.255,0.5055 -0.125,0 -0.229,-0.1422 -0.229,-0.4258 z m 0.786,-0.0277 c 0,-0.3473 -0.237,-0.5641 -0.548,-0.5641 -0.327,0 -0.539,0.2387 -0.539,0.5367 0,0.2621 0.174,0.5656 0.562,0.5656 0.296,0 0.525,-0.2172 0.525,-0.5382"
               style="fill:#0f1f47;fill-opacity:1;fill-rule:nonzero;stroke:none"
               id="path104" /><path
               d="m 207.063,27.7832 0,-0.0629 c -0.124,-0.0113 -0.13,-0.0183 -0.125,-0.1887 l 0.016,-0.5425 c 0.005,-0.1801 0.007,-0.1848 0.124,-0.1961 l 0,-0.0629 -0.507,0 0,0.0629 c 0.121,0.0113 0.126,0.016 0.125,0.1961 l -0.005,0.5711 -0.006,0 -0.313,-0.8125 -0.088,0 -0.296,0.755 -0.004,0 -0.011,-0.3597 c -0.005,-0.1391 -0.003,-0.2168 0.003,-0.2668 0.006,-0.061 0.042,-0.075 0.148,-0.0832 l 0,-0.0629 -0.401,0 0,0.0629 c 0.078,0.0066 0.11,0.0222 0.119,0.0832 0.008,0.05 0.018,0.1359 0.026,0.2836 l 0.017,0.3265 c 0.011,0.2047 0,0.2227 -0.129,0.234 l 0,0.0629 0.381,0 0.283,-0.6414 0.248,0.6414 0.395,0"
               style="fill:#0f1f47;fill-opacity:1;fill-rule:nonzero;stroke:none"
               id="path106" /><path
               d="m 207.313,27.5238 c 0,0.1754 -0.014,0.1867 -0.121,0.1965 l 0,0.0629 0.768,0 c 0.001,-0.0273 0.01,-0.1461 0.018,-0.2672 l -0.071,-0.0047 c -0.016,0.0793 -0.035,0.1242 -0.061,0.1504 -0.025,0.0278 -0.079,0.0375 -0.165,0.0375 l -0.028,0 c -0.061,0 -0.065,0 -0.065,-0.0566 l 0,-0.3125 0.081,0 c 0.14,0 0.144,0.0094 0.162,0.1324 l 0.07,0 0,-0.3824 -0.07,0 c -0.018,0.1426 -0.022,0.1523 -0.162,0.1523 l -0.081,0 0,-0.264 c 0,-0.0844 0.004,-0.125 0.033,-0.1399 0.026,-0.0133 0.063,-0.014 0.113,-0.014 0.065,0 0.137,0.0097 0.173,0.0484 0.027,0.0293 0.054,0.0891 0.079,0.1668 l 0.071,-0.0113 c -0.008,-0.0793 -0.042,-0.245 -0.057,-0.2883 l -0.824,0 0,0.0629 c 0.123,0.0101 0.137,0.0215 0.137,0.1961 l 0,0.5347"
               style="fill:#0f1f47;fill-opacity:1;fill-rule:nonzero;stroke:none"
               id="path108" /><path
               d="m 208.42,27.1449 0.208,0 -0.103,0.3094 -0.005,0 -0.1,-0.3094 z m 0.206,-0.3519 0.049,0.0066 c 0.059,0.0078 0.063,0.0246 0.042,0.0828 l -0.059,0.1653 -0.265,0 -0.049,-0.1555 c -0.022,-0.0699 -0.022,-0.0859 0.053,-0.0945 l 0.047,-0.0047 0,-0.0629 -0.377,0 0,0.0629 c 0.082,0.0113 0.107,0.0179 0.16,0.1539 l 0.324,0.8379 0.113,0.0234 0.109,-0.3066 c 0.07,-0.193 0.139,-0.3844 0.201,-0.5496 0.053,-0.1411 0.082,-0.1489 0.161,-0.159 l 0,-0.0629 -0.509,0 0,0.0629"
               style="fill:#0f1f47;fill-opacity:1;fill-rule:nonzero;stroke:none"
               id="path110" /></g><path
             id="path112"
             style="fill:#ffffff;fill-opacity:1;fill-rule:nonzero;stroke:none"
             d="m 202.852,13.691 c 0,-0.2344 -0.191,-0.4238 -0.424,-0.4238 -0.235,0 -0.425,0.1894 -0.425,0.4238 0,0.2336 0.19,0.4238 0.425,0.4238 0.233,0 0.424,-0.1902 0.424,-0.4238" /><path
             id="path114"
             style="fill:#ffffff;fill-opacity:1;fill-rule:nonzero;stroke:none"
             d="m 207.15,12.9859 c 0,-0.2343 -0.19,-0.4246 -0.424,-0.4246 -0.234,0 -0.424,0.1903 -0.424,0.4246 0,0.2336 0.19,0.4235 0.424,0.4235 0.234,0 0.424,-0.1899 0.424,-0.4235" /><path
             id="path116"
             style="fill:#ffffff;fill-opacity:1;fill-rule:nonzero;stroke:none"
             d="m 190.679,36.8051 0,0 0,0 0,0 z" /><path
             id="path118"
             style="fill:#ffffff;fill-opacity:1;fill-rule:nonzero;stroke:none"
             d="m 208.489,44.4652 0,0 0,0 0,0 z" /><path
             id="path120"
             style="fill:#ffffff;fill-opacity:1;fill-rule:nonzero;stroke:none"
             d="m 215.329,36.043 0,0 0,0 0,0 z" /><path
             id="path122"
             style="fill:#ffffff;fill-opacity:1;fill-rule:nonzero;stroke:none"
             d="m 218.625,22.2582 0,0 0,0 0,0 z" /><path
             id="path124"
             style="fill:#ffffff;fill-opacity:1;fill-rule:nonzero;stroke:none"
             d="m 204.721,43.6176 c 0,-0.2344 -0.19,-0.4238 -0.425,-0.4238 -0.234,0 -0.423,0.1894 -0.423,0.4238 0,0.2344 0.189,0.4238 0.423,0.4238 0.235,0 0.425,-0.1894 0.425,-0.4238" /><path
             id="path126"
             style="fill:#ffffff;fill-opacity:1;fill-rule:nonzero;stroke:none"
             d="m 214.807,39.65 c -0.01,-0.234 -0.208,-0.4156 -0.442,-0.4055 -0.233,0.0098 -0.415,0.2075 -0.405,0.4414 0.009,0.234 0.208,0.4153 0.441,0.4055 0.234,-0.0105 0.416,-0.2074 0.406,-0.4414" /><g
             id="g4655"><path
               d="m 210.352,40.6492 1.565,2.6543 1.472,-0.8672 -0.214,-0.3633 -1.052,0.62 -0.432,-0.7344 0.989,-0.5832 -0.209,-0.3555 -0.989,0.5832 -0.708,-1.2027 -0.422,0.2488"
               style="fill:#ffffff;fill-opacity:1;fill-rule:nonzero;stroke:none"
               id="path144" /><path
               d="m 208.394,41.8652 c -0.224,0 -0.546,0.1094 -0.727,0.4383 -0.086,0.1594 -0.125,0.3528 -0.125,0.5528 0,0.5519 0.368,1.3261 1.039,1.3261 0.377,0 0.851,-0.2804 0.851,-0.9773 0,-0.4438 -0.313,-1.3399 -1.038,-1.3399 z m 0.158,2.7485 c -0.642,0 -1.201,-0.4321 -1.427,-1.2008 -0.05,-0.1703 -0.081,-0.3391 -0.081,-0.5027 0,-0.3082 0.051,-0.552 0.177,-0.7817 0.285,-0.5215 0.807,-0.7 1.203,-0.7 0.224,0 0.44,0.052 0.639,0.1598 0.519,0.2847 0.862,0.9445 0.862,1.5758 0,0.2738 -0.053,0.532 -0.175,0.7535 -0.25,0.4543 -0.713,0.6961 -1.198,0.6961"
               style="fill:#ffffff;fill-opacity:1;fill-rule:nonzero;stroke:none"
               id="path154" /></g><g
             id="g4643"><path
               d="m 193.549,21.4555 c 0.163,-0.2344 0.245,-0.4848 0.244,-0.7446 0,-0.2961 -0.099,-0.5367 -0.628,-0.9035 l -1.531,-1.0906 -0.282,0.4055 c 0,0 1.568,1.116 1.594,1.134 0.27,0.1867 0.385,0.3238 0.386,0.5375 0,0.1359 -0.05,0.2839 -0.148,0.425 -0.153,0.2207 -0.35,0.2914 -0.523,0.2914 -0.158,3e-4 -0.327,-0.1098 -0.629,-0.3204 l -1.439,-0.9757 -0.276,0.3972 1.37,0.9282 c 0.38,0.2671 0.684,0.4511 0.966,0.4507 0.411,-0.0011 0.712,-0.2683 0.896,-0.5347"
               style="fill:#ffffff;fill-opacity:1;fill-rule:nonzero;stroke:none"
               id="path128" /><path
               d="m 188.658,24.4438 2.912,1.021 0.161,-0.441 -1.666,-2.0351 2.106,0.8328 0.156,-0.4293 -2.878,-1.1063 -0.161,0.4411 1.674,2.0382 -2.147,-0.7511 -0.157,0.4297"
               style="fill:#ffffff;fill-opacity:1;fill-rule:nonzero;stroke:none"
               id="path130" /><path
               d="m 188.223,26.7629 3.048,0.4519 0.072,-0.4882 -3.048,-0.4524 -0.072,0.4887"
               style="fill:#ffffff;fill-opacity:1;fill-rule:nonzero;stroke:none"
               id="path132" /><path
               d="m 188.132,30.4371 0.012,0.5109 3.042,-1.2355 -0.021,-0.5074 -3.124,-0.9317 0.003,0.5121 2.533,0.7102 -2.445,0.9414"
               style="fill:#ffffff;fill-opacity:1;fill-rule:nonzero;stroke:none"
               id="path134" /><path
               d="m 190.366,36.3973 c 0.18,0.3285 0.309,0.4535 0.5,0.4523 0.071,0 0.16,-0.018 0.25,-0.068 0.115,-0.0632 0.204,-0.1699 0.237,-0.2843 0.013,-0.0446 0.018,-0.0891 0.017,-0.1336 -0.001,-0.1824 -0.103,-0.3664 -0.21,-0.559 l -0.063,-0.1145 -0.868,0.4664 0.137,0.2407 z m 0.548,0.9336 c -0.435,-8e-4 -0.637,-0.2504 -0.914,-0.7524 l -0.363,-0.6484 2.715,-1.4731 0.234,0.4239 -1.128,0.6164 0.066,0.1215 c 0.19,0.3429 0.255,0.3953 0.739,0.3542 l 0.879,-0.0781 0.252,0.4559 -1.014,0.0863 c -0.203,0.0188 -0.364,0.034 -0.494,-0.0039 -0.043,-0.0129 -0.095,-0.0391 -0.145,-0.0746 0.011,0.0555 0.032,0.1086 0.032,0.1644 0.001,0.0868 -0.011,0.1727 -0.037,0.2508 -0.059,0.1813 -0.188,0.3282 -0.383,0.4356 -0.146,0.0804 -0.291,0.1215 -0.439,0.1215"
               style="fill:#ffffff;fill-opacity:1;fill-rule:nonzero;stroke:none"
               id="path136" /><path
               d="m 194.286,41.6855 0.392,0.2989 1.87,-2.4489 -0.392,-0.2992 -1.87,2.4492"
               style="fill:#ffffff;fill-opacity:1;fill-rule:nonzero;stroke:none"
               id="path138" /><path
               d="m 195.978,42.8863 1.993,1.0379 0.195,-0.3738 -0.776,-0.4039 1.229,-2.3594 -0.438,-0.2281 -1.228,2.3594 -0.78,-0.4063 -0.195,0.3742"
               style="fill:#ffffff;fill-opacity:1;fill-rule:nonzero;stroke:none"
               id="path140" /><path
               d="m 200.951,44.8613 0.519,0.145 -0.418,-2.061 0.338,-1.1703 -0.47,-0.1359 -0.33,1.1613 -1.464,1.5266 0.507,0.1472 1.053,-1.0972 0.265,1.4843"
               style="fill:#ffffff;fill-opacity:1;fill-rule:nonzero;stroke:none"
               id="path142" /><path
               d="m 191.485,33.4391 0.414,-0.1168 -0.467,-1.6922 -2.982,0.8172 0.509,1.7121 0.405,-0.1145 -0.374,-1.2336 0.823,-0.2254 0.317,1.12 0.396,-0.1125 -0.316,-1.1168 0.93,-0.2555 0.345,1.218"
               style="fill:#ffffff;fill-opacity:1;fill-rule:nonzero;stroke:none"
               id="path156" /><path
               d="m 192.267,39.877 c 0.428,0.4793 0.866,0.446 0.866,0.446 l 0.075,-0.4058 c 0,0 -0.338,-0.0113 -0.602,-0.3074 -0.115,-0.1289 -0.173,-0.2637 -0.173,-0.3848 0,-0.0996 0.039,-0.1867 0.117,-0.2566 0.214,-0.1903 0.578,0.0207 0.806,0.1125 0.176,0.0722 0.426,0.1746 0.675,0.1746 0.186,0 0.379,-0.0535 0.554,-0.2102 0.206,-0.1832 0.308,-0.4137 0.308,-0.6547 0,-0.2617 -0.101,-0.4945 -0.306,-0.7234 -0.393,-0.4406 -0.921,-0.4887 -0.921,-0.4887 l -0.106,0.4121 c 0.312,0.0719 0.547,0.1922 0.69,0.3524 0.113,0.1258 0.168,0.2668 0.168,0.3906 0,0.116 -0.048,0.225 -0.144,0.3098 -0.076,0.0683 -0.17,0.0933 -0.272,0.091 -0.199,0 -0.436,-0.1133 -0.631,-0.1946 -0.374,-0.1543 -0.769,-0.2793 -1.122,0.0368 -0.181,0.1601 -0.276,0.3629 -0.276,0.5871 0,0.2367 0.093,0.4886 0.294,0.7133"
               style="fill:#ffffff;fill-opacity:1;fill-rule:nonzero;stroke:none"
               id="path158" /></g><g
             id="g4659"><path
               d="m 218.269,33.7852 1.122,1.3421 0.175,-0.5312 -0.835,-0.9555 1.241,-0.2789 0.164,-0.5008 -1.698,0.411 -1.206,-1.4453 -0.171,0.5226 0.91,1.0606 -1.361,0.3105 -0.166,0.5059 1.825,-0.441"
               style="fill:#ffffff;fill-opacity:1;fill-rule:nonzero;stroke:none"
               id="path146" /><path
               d="m 217.389,30.7574 3.071,0.2508 0.139,-1.7035 -0.42,-0.0344 -0.099,1.216 -0.85,-0.0691 0.093,-1.1449 -0.41,-0.0332 -0.094,1.1449 -1.39,-0.1137 -0.04,0.4871"
               style="fill:#ffffff;fill-opacity:1;fill-rule:nonzero;stroke:none"
               id="path148" /><path
               d="m 218.99,25.6625 c -0.601,0 -1.302,0.3266 -1.302,0.932 0,0.2196 0.076,0.5141 0.347,0.7102 0.183,0.1332 0.421,0.2043 0.687,0.2043 0.306,0 0.857,-0.0863 1.147,-0.4852 0.099,-0.1375 0.15,-0.2968 0.149,-0.4672 0,-0.2363 -0.096,-0.5168 -0.349,-0.6996 -0.179,-0.13 -0.415,-0.1945 -0.679,-0.1945 z m -0.243,2.3477 c -0.357,0 -0.684,-0.0961 -0.942,-0.2836 -0.465,-0.3371 -0.55,-0.8211 -0.55,-1.1039 0,-1.0422 0.978,-1.4586 1.714,-1.4586 0.353,-4e-4 0.677,0.0957 0.93,0.28 0.52,0.3758 0.548,0.9407 0.548,1.1223 0,0.9094 -0.835,1.4438 -1.7,1.4438"
               style="fill:#ffffff;fill-opacity:1;fill-rule:nonzero;stroke:none"
               id="path150" /><path
               d="m 216.479,35.7574 c -0.277,0 -0.527,0.116 -0.699,0.3875 -0.088,0.1387 -0.13,0.2875 -0.131,0.4387 -0.002,0.3484 0.219,0.7059 0.623,0.9629 0.268,0.1691 0.53,0.2527 0.765,0.2519 0.297,0 0.539,-0.1304 0.7,-0.3851 0.095,-0.15 0.139,-0.3098 0.139,-0.4695 0,-0.3403 -0.216,-0.6739 -0.606,-0.9208 -0.273,-0.1738 -0.549,-0.2656 -0.791,-0.2656 z m 0.479,2.5102 c -0.311,0 -0.643,-0.0992 -0.962,-0.3012 -0.592,-0.3762 -0.808,-0.9141 -0.808,-1.3066 0,-0.2539 0.07,-0.5035 0.215,-0.7332 0.328,-0.518 0.822,-0.645 1.156,-0.6434 0.316,0.002 0.653,0.107 0.969,0.3082 0.381,0.2414 0.805,0.6906 0.805,1.2988 0,0.2524 -0.072,0.5008 -0.218,0.7309 -0.269,0.4254 -0.692,0.6465 -1.157,0.6465"
               style="fill:#ffffff;fill-opacity:1;fill-rule:nonzero;stroke:none"
               id="path152" /><path
               d="m 218.389,22.1957 c -0.139,-4e-4 -0.374,0.0801 -0.464,0.3094 -0.022,0.0586 -0.031,0.1176 -0.031,0.1773 0.002,0.1692 0.082,0.3446 0.165,0.5285 l 0.051,0.1188 0.889,-0.3996 -0.099,-0.2375 c -0.166,-0.3762 -0.274,-0.4961 -0.511,-0.4969 z m -1.819,1.8273 1.165,-0.5269 -0.058,-0.1313 c -0.159,-0.3585 -0.219,-0.4168 -0.705,-0.4191 l -0.882,-4e-4 -0.21,-0.475 1.016,0.0027 c 0.207,0 0.367,0 0.492,0.0481 0.041,0.0156 0.087,0.0414 0.13,0.0758 -0.003,-0.0262 -0.012,-0.052 -0.012,-0.0785 -0.001,-0.1129 0.02,-0.225 0.063,-0.3235 0.139,-0.3254 0.518,-0.4851 0.796,-0.484 0.49,4e-4 0.678,0.2934 0.916,0.8329 0.009,0.0207 0.286,0.6609 0.286,0.6609 l -2.801,1.2617 -0.196,-0.4434"
               style="fill:#ffffff;fill-opacity:1;fill-rule:nonzero;stroke:none"
               id="path160" /><path
               d="m 216.045,18.7887 c -0.244,0 -0.474,0.0941 -0.713,0.2851 -0.243,0.1934 -0.5,0.4953 -0.5,0.8801 0,0.268 0.145,0.5231 0.369,0.8027 l 0.204,0.2555 1.76,-1.4043 -0.136,-0.1683 c -0.326,-0.409 -0.549,-0.6508 -0.984,-0.6508 z m -1.098,2.3191 c -0.319,-0.4 -0.561,-0.757 -0.561,-1.2191 0,-0.3922 0.177,-0.8391 0.629,-1.1989 0.298,-0.2378 0.636,-0.3671 0.984,-0.3671 0.429,0 0.772,0.1285 1.307,0.798 l 0.486,0.6117 -2.408,1.9223 -0.437,-0.5469"
               style="fill:#ffffff;fill-opacity:1;fill-rule:nonzero;stroke:none"
               id="path162" /></g><path
             id="path164"
             style="fill:#ffffff;fill-opacity:1;fill-rule:nonzero;stroke:none"
             d="m 214.661,15.2465 c -2.868,-1.0137 -5.544,-0.9442 -7.828,-0.4352 0.075,1.0203 0.497,2.1102 1.143,2.3125 5.028,1.5602 8.691,6.2485 8.691,11.775 0,6.7965 -5.541,12.3258 -12.35,12.3258 -6.81,0 -12.349,-5.5293 -12.349,-12.3258 0,-3.7816 1.765,-7.3734 4.739,-9.7023 -0.707,-0.3102 -1.309,-0.8121 -1.744,-1.4367 -0.226,0.1535 -0.442,0.3125 -0.644,0.4781 l -0.112,-0.1129 c 0.135,-0.1625 0.343,-0.377 0.594,-0.6168 -0.366,-0.6156 -0.578,-1.3328 -0.578,-2.0988 0,-0.1199 0.007,-0.2371 0.018,-0.3539 -4.425,3.2242 -7.053,8.3504 -7.053,13.8433 0,9.4442 7.684,17.1282 17.129,17.1282 9.445,0 17.13,-7.684 17.13,-17.1282 0,-5.4101 -2.473,-10.3804 -6.786,-13.6523 z m -9.937,-4.043 c -2.368,0 -5.322,0.8047 -7.351,2.0016 -0.615,0.3633 -1.349,1.0379 -1.349,2.1914 0,0.3109 0.062,0.6086 0.17,0.8816 0.757,-0.6258 1.541,-1.2133 2.032,-1.482 0.112,-0.0621 0.178,-0.0922 0.31,-0.0922 0.315,0 0.57,0.2566 0.57,0.5731 0,0.2414 -0.131,0.4382 -0.348,0.5332 -0.42,0.1836 -1.298,0.5461 -2.244,1.0367 0.437,0.5773 1.127,0.9523 1.903,0.9523 0.354,0 0.696,-0.0762 1.015,-0.2265 l 0.649,-0.3778 c 2.063,-1.2601 7.369,-4.491 13.775,-2.7152 -2.431,-2.1945 -5.426,-3.2762 -9.132,-3.2762 z m 2.028,-1.44217 c -0.65,0 -1.185,-0.46055 -1.185,-1.16719 0,-0.69141 0.542,-1.16758 1.185,-1.16758 0.098,0 0.191,0.01719 0.282,0.04063 -0.136,-0.97891 -1.276,-2.07461 -2.746,-2.56719 -1.459,0.48867 -2.599,1.59219 -2.749,2.56641 0.09,-0.02344 0.183,-0.03985 0.28,-0.03985 0.702,0 1.185,0.4918 1.185,1.16758 0,0.64453 -0.507,1.15039 -1.159,1.16524 0.198,0.36402 0.39,0.75082 0.53,1.16642 0.81,-0.1406 1.607,-0.218 2.349,-0.218 0.607,0 1.197,0.0332 1.774,0.0914 0.077,-0.3336 0.19,-0.6824 0.323,-1.04334 -0.023,0.00156 -0.046,0.00547 -0.069,0.00547 z m -8.373,9.29297 c 1.218,0 2.357,-0.625 3.025,-1.625 -0.584,0.1484 -1.159,0.341 -1.719,0.5801 l -0.003,-0.0035 -0.018,0.0105 c -0.392,0.1844 -0.811,0.2785 -1.247,0.2785 -0.971,0 -1.829,-0.4761 -2.359,-1.2035 -0.224,0.1238 -0.446,0.2539 -0.665,0.3899 0.656,0.9488 1.749,1.573 2.986,1.573 z m 4.821,-2.4305 c -0.151,-0.1121 -0.271,-0.2453 -0.358,-0.3933 -0.446,0.2172 -1.008,0.4965 -1.375,0.7019 0.52,-0.1148 1.199,-0.2605 1.733,-0.3086 z m 3.75,0.2332 c -0.355,-0.5062 -0.567,-1.2101 -0.63,-1.9218 -1.119,0.2878 -2.135,0.6761 -3.021,1.08 0.169,0.3262 0.651,0.5571 1.018,0.5571 0.904,0 1.783,0.0996 2.633,0.2847 z m -2.633,0.2106 c -0.756,0 -1.501,0.0726 -2.231,0.2121 -0.704,1.3812 -2.148,2.2699 -3.707,2.2699 -0.383,0 -0.752,-0.0558 -1.105,-0.1535 -2.997,2.2273 -4.784,5.7687 -4.784,9.5027 0,6.5231 5.305,11.8309 11.827,11.8309 6.522,0 11.828,-5.3078 11.828,-11.8309 0,-6.5238 -5.306,-11.8312 -11.828,-11.8312 z m -5.938,-5.3031 c -2.004,0 -3.634,1.6347 -3.634,3.6449 0,0.6293 0.16,1.2219 0.442,1.739 0.187,-0.1695 0.386,-0.3457 0.594,-0.5238 -0.177,-0.3734 -0.279,-0.7883 -0.279,-1.2281 0,-1.0934 0.552,-1.9961 1.595,-2.6113 0.6,-0.3539 1.278,-0.6723 1.996,-0.9504 -0.234,-0.0461 -0.471,-0.0703 -0.714,-0.0703 z m 23.59,17.1343 c 0,9.7172 -7.919,17.6235 -17.652,17.6235 -9.733,0 -17.651,-7.9063 -17.651,-17.6235 0,-5.8304 2.878,-11.2644 7.702,-14.557 0.474,-1.7664 2.09,-3.0734 4.011,-3.0734 0.519,0 1.023,0.0988 1.502,0.2839 0.646,-0.2132 1.313,-0.3898 1.978,-0.5269 -0.187,-0.5352 -0.461,-1.04259 -0.721,-1.48165 0,0 0.005,0.00117 0.014,0.00313 -0.005,-0.00352 -0.01,-0.00547 -0.015,-0.0086 l 0.368,-0.36836 c 0.093,0.05196 0.2,0.0836 0.314,0.0836 0.364,0 0.659,-0.29571 0.659,-0.65938 0,-0.36328 -0.295,-0.65898 -0.659,-0.65898 -0.317,0 -0.596,0.20351 -0.741,0.4207 0,0 -0.086,-0.2957 -0.086,-0.6875 -0.003,-1.26563 1.379,-2.7125 3.296,-3.32148 1.915,0.59609 3.296,2.05312 3.296,3.32031 0,0.43594 -0.086,0.68867 -0.086,0.68867 -0.147,-0.17734 -0.386,-0.4207 -0.746,-0.4207 -0.363,0 -0.659,0.2957 -0.659,0.65898 0,0.36367 0.296,0.65938 0.659,0.65938 0.127,0 0.246,-0.03829 0.347,-0.10118 l 0.356,0.35704 c 0.008,-0.00196 0.014,-0.00352 0.014,-0.00352 -0.202,0.48242 -0.349,0.92574 -0.449,1.35194 3.173,0.4274 5.851,1.7711 7.98,4.0094 l -0.001,0.0023 c 4.429,3.3657 6.97,8.4727 6.97,14.0293" /></g></g></g><g
       id="g5030"><path
         id="path166"
         style="fill:#847059;fill-opacity:1;fill-rule:nonzero;stroke:none"
         d="M 150.014,4.8418 C 150.014,2.17773 147.835,0 145.18,0 L 4.83633,0 C 2.17734,0 0,2.17773 0,4.8418 l 0,41.3437 c 0,2.661 2.17734,4.8379 4.83633,4.8379 l 140.34367,0 c 2.655,0 4.834,-2.1769 4.834,-4.8379 l 0,-41.3437" /><g
         id="g4994"><g
           id="g4959"><path
             id="path168"
             style="fill:#ffffff;fill-opacity:1;fill-rule:nonzero;stroke:none"
             d="m 41.7313,15.9266 c 0,-2.9727 1.9457,-5.3875 4.655,-5.9102 0.5489,-0.11015 1.1141,-0.14726 1.6922,-0.1082 1.5508,0.1082 2.8949,0.718 3.7434,1.2859 l 0.041,-2.03082 c -0.9,-0.52773 -2.266,-1.14101 -4.432,-1.14101 l 0,0 c -4.4266,0 -7.7356,3.39573 -7.7356,7.87933 0,4.4824 3.309,7.8789 7.7356,7.8789 l 0,0 c 2.166,0 3.532,-0.6133 4.432,-1.141 l -0.041,-2.0309 c -0.8485,0.568 -2.1926,1.2273 -3.7434,1.3355 -0.5781,0.0395 -1.1433,0.0012 -1.6922,-0.1082 -2.7093,-0.5234 -4.655,-2.9386 -4.655,-5.9093" /><path
             id="path170"
             style="fill:#ffffff;fill-opacity:1;fill-rule:nonzero;stroke:none"
             d="m 35.2078,19.1543 c 0,0.4414 -0.118,0.9102 -0.282,1.2461 -0.1645,0.334 -0.402,0.5984 -0.7805,0.823 -0.3074,0.1797 -0.6613,0.3059 -1.0762,0.3723 -0.4144,0.0691 -0.8996,0.1047 -1.4519,0.1047 l -2.6758,0 0,-5.559 2.3508,0 c 0.6734,0 1.2582,0.041 1.7461,0.1582 0.4441,0.1047 0.9055,0.3012 1.2469,0.5996 0.3171,0.2785 0.5476,0.5957 0.6984,0.9524 0.1508,0.3543 0.2242,0.7422 0.2242,1.3027 l 0,0 z m 4.5016,-10.91797 -2.6895,0 -4.859,5.95627 -3.2195,0 0,-5.95627 -1.9668,0 0,15.29097 4.4336,0 c 0.9184,0 1.6801,-0.0351 2.3063,-0.1445 0.7668,-0.1457 1.2425,-0.332 1.764,-0.6808 0.5512,-0.3641 0.8754,-0.7149 1.2051,-1.3016 0.3168,-0.5363 0.5465,-1.4168 0.5465,-2.2305 0,-1.0422 -0.2289,-1.8808 -0.734,-2.675 -0.5051,-0.7945 -1.2402,-1.4187 -2.2109,-1.7488 l 5.4242,-6.50977 0,0" /><path
             id="path172"
             style="fill:#ffffff;fill-opacity:1;fill-rule:nonzero;stroke:none"
             d="m 23.0012,23.5273 -2.7778,0 -2.6218,-7.3972 C 17.0277,14.4305 16.5645,12.834 16.1785,11.3855 l -0.0437,0 c -0.386,1.4485 -0.8489,3.045 -1.4235,4.7446 l -2.6211,7.3972 -2.77731,0 -1.07656,-15.29214 2.03747,0 0.4102,6.55704 c 0.1375,2.3113 0.2508,4.8543 0.2961,6.7586 l 0.0457,0 c 0.4344,-1.8145 1.0254,-3.7656 1.7539,-5.9422 l 2.5086,-7.28438 1.7371,0 2.5059,7.28438 c 0.73,2.1766 1.3222,4.1277 1.7558,5.9422 l 0.0453,0 c 0.0449,-1.9043 0.1594,-4.4473 0.2965,-6.7586 l 0.4109,-6.55704 2.0372,0 -1.0758,15.29214" /></g><path
           d="m 60.9988,4.76289 -1.1773,0 0,41.83751 1.1773,0 0,-41.83751"
           style="fill:#ffffff;fill-opacity:1;fill-rule:nonzero;stroke:none"
           id="path174" /><g
           id="g4964"><g
             id="g4952"><path
               d="m 73.673,24.3223 c 0,0.2773 -0.0421,0.4953 -0.1246,0.659 -0.0836,0.1621 -0.2339,0.3 -0.4523,0.4132 -0.1457,0.0774 -0.3258,0.1258 -0.5359,0.1504 -0.2106,0.0235 -0.4661,0.034 -0.7664,0.034 l -1.4321,0 0,-2.5508 1.2063,0 c 0.4,0 0.7265,0.0227 0.9808,0.0625 0.2547,0.041 0.4641,0.1184 0.6258,0.2278 0.1727,0.1211 0.2981,0.257 0.3777,0.4089 0.0793,0.1543 0.1207,0.3516 0.1207,0.595 z m -0.5855,3.1257 c 0,0.1653 -0.0273,0.3047 -0.0824,0.42 -0.0547,0.1125 -0.1442,0.2043 -0.2664,0.2754 -0.1453,0.0824 -0.3203,0.1339 -0.5254,0.1535 -0.2067,0.0195 -0.4613,0.0312 -0.7641,0.0312 l -1.0875,0 0,-1.9804 1.1789,0 c 0.286,0 0.5129,0.0144 0.6821,0.0449 0.1683,0.0285 0.3253,0.0887 0.4687,0.1804 0.1449,0.093 0.2461,0.2114 0.3066,0.3567 0.0602,0.1473 0.0895,0.3191 0.0895,0.5183 z m 1.5336,-3.0894 c 0,-0.3391 -0.0652,-0.6398 -0.1934,-0.9016 C 74.2984,23.1965 74.1246,22.9813 73.9078,22.8113 73.6488,22.6094 73.366,22.4648 73.0582,22.3801 72.7496,22.2949 72.357,22.25 71.8813,22.25 l -2.4305,0 0,6.8555 2.0312,0 c 0.4985,0 0.8735,-0.0188 1.1219,-0.0547 0.2496,-0.0371 0.4875,-0.1133 0.7149,-0.2305 0.2503,-0.1316 0.4335,-0.3008 0.5472,-0.509 0.1137,-0.2078 0.1695,-0.455 0.1695,-0.7422 0,-0.3269 -0.082,-0.6035 -0.248,-0.8328 -0.166,-0.2285 -0.3867,-0.4109 -0.6621,-0.55 l 0,-0.0359 c 0.4625,-0.0957 0.8281,-0.2988 1.0949,-0.6113 0.2676,-0.3106 0.4008,-0.7051 0.4008,-1.1805"
               style="fill:#ffffff;fill-opacity:1;fill-rule:nonzero;stroke:none"
               id="path176" /><path
               d="m 79.4125,26.4492 -0.0453,0 c -0.1293,0.0313 -0.2543,0.0528 -0.3754,0.0676 -0.1223,0.0145 -0.2648,0.0203 -0.4313,0.0203 -0.2667,0 -0.5253,-0.0586 -0.7734,-0.1777 -0.248,-0.1192 -0.4867,-0.2703 -0.7187,-0.4578 l 0,-3.6516 -0.8641,0 0,5.1434 0.8641,0 0,-0.7594 c 0.3453,0.2754 0.6472,0.4715 0.9101,0.5867 0.2625,0.1141 0.5305,0.1727 0.8031,0.1727 0.15,0 0.2598,-0.0039 0.327,-0.0125 0.0672,-0.0059 0.1695,-0.0215 0.3039,-0.043 l 0,-0.8887"
               style="fill:#ffffff;fill-opacity:1;fill-rule:nonzero;stroke:none"
               id="path178" /><path
               d="m 83.5547,23.5156 0,1.4336 C 83.291,24.9336 82.9809,24.9094 82.623,24.8801 82.2668,24.8484 81.982,24.8035 81.7742,24.7449 81.525,24.6746 81.323,24.5652 81.1703,24.416 81.0168,24.2676 80.941,24.0637 80.941,23.8016 c 0,-0.2926 0.0887,-0.5164 0.2664,-0.6649 0.177,-0.1496 0.4489,-0.2226 0.8153,-0.2226 0.3027,0 0.5808,0.0578 0.8332,0.1765 0.2511,0.1192 0.4847,0.261 0.6988,0.425 z m 0.8613,-1.2656 -0.8613,0 0,0.5488 c -0.075,-0.0527 -0.1797,-0.1261 -0.3102,-0.2187 -0.13,-0.0938 -0.2562,-0.168 -0.3793,-0.2246 -0.1449,-0.0703 -0.3117,-0.1282 -0.4976,-0.177 -0.1867,-0.0469 -0.4063,-0.0711 -0.6586,-0.0711 -0.4641,0 -0.8559,0.1543 -1.1785,0.4602 -0.3227,0.3086 -0.4832,0.6988 -0.4832,1.1746 0,0.3887 0.084,0.7051 0.2515,0.9465 0.1664,0.241 0.4055,0.4304 0.7153,0.5672 0.3136,0.1386 0.6902,0.2324 1.1277,0.2812 0.4395,0.0496 0.9105,0.0859 1.4129,0.1102 l 0,0.134 c 0,0.196 -0.0344,0.3605 -0.1027,0.489 -0.0688,0.1281 -0.1692,0.2297 -0.2973,0.3027 -0.1219,0.0704 -0.2699,0.1196 -0.443,0.1426 -0.1703,0.0266 -0.3512,0.0364 -0.5375,0.0364 -0.2273,0 -0.4801,-0.0274 -0.7597,-0.0887 -0.2793,-0.0586 -0.5676,-0.1457 -0.8657,-0.2602 l -0.0453,0 0,0.8789 c 0.1684,0.0461 0.4125,0.0981 0.7309,0.1528 0.3207,0.0543 0.634,0.0828 0.9453,0.0828 0.3617,0 0.6773,-0.0305 0.9449,-0.0891 0.2692,-0.0613 0.5004,-0.1617 0.6977,-0.3074 0.1933,-0.1414 0.341,-0.3234 0.4414,-0.5481 0.1023,-0.2234 0.1523,-0.5007 0.1523,-0.832 l 0,-3.491"
               style="fill:#ffffff;fill-opacity:1;fill-rule:nonzero;stroke:none"
               id="path180" /><path
               d="m 87.3152,22.25 -0.864,0 0,5.1434 0.864,0 0,-5.1434 z m 0.0559,6.0051 -0.9758,0 0,0.8972 0.9758,0 0,-0.8972"
               style="fill:#ffffff;fill-opacity:1;fill-rule:nonzero;stroke:none"
               id="path182" /><path
               d="m 93.6863,22.25 -0.864,0 0,2.9297 c 0,0.2344 -0.0149,0.4582 -0.043,0.6641 -0.0266,0.207 -0.0781,0.3691 -0.1504,0.4855 -0.0781,0.1297 -0.1875,0.2254 -0.332,0.2879 -0.1438,0.0625 -0.3313,0.0945 -0.5625,0.0945 -0.2356,0 -0.4832,-0.0574 -0.7403,-0.1746 -0.2578,-0.1172 -0.5046,-0.2656 -0.7421,-0.4453 l 0,-3.8418 -0.8653,0 0,5.1434 0.8653,0 0,-0.5719 c 0.2714,0.2246 0.55,0.4004 0.8378,0.5254 0.2903,0.125 0.5848,0.189 0.8899,0.189 0.5547,0 0.9781,-0.1687 1.2703,-0.5027 0.2922,-0.3352 0.4363,-0.8152 0.4363,-1.4453 l 0,-3.3379"
               style="fill:#ffffff;fill-opacity:1;fill-rule:nonzero;stroke:none"
               id="path184" /></g><g
             id="g4943"><path
               d="m 104.684,22.25 -1.128,0 -3.25,6.1328 0,-6.1328 -0.8517,0 0,6.8555 1.4127,0 2.965,-5.5965 0,5.5965 0.852,0 0,-6.8555"
               style="fill:#ffffff;fill-opacity:1;fill-rule:nonzero;stroke:none"
               id="path186" /><path
               d="m 110.258,25.3945 c -0.002,0.4551 -0.117,0.8067 -0.343,1.0547 -0.225,0.2481 -0.568,0.3723 -1.029,0.3723 -0.463,0 -0.832,-0.1352 -1.107,-0.4082 -0.275,-0.2746 -0.43,-0.6137 -0.466,-1.0188 l 2.945,0 z m 0.843,-0.6621 -3.788,0 c 0,-0.3164 0.045,-0.591 0.142,-0.8269 0.095,-0.2344 0.225,-0.427 0.392,-0.5785 0.159,-0.1465 0.347,-0.2567 0.568,-0.3309 0.219,-0.0734 0.46,-0.1106 0.724,-0.1106 0.35,0 0.703,0.0704 1.057,0.209 0.356,0.1399 0.607,0.2778 0.757,0.4145 l 0.047,0 0,-0.9453 c -0.291,-0.1235 -0.589,-0.2258 -0.893,-0.3086 -0.305,-0.0824 -0.624,-0.1242 -0.959,-0.1242 -0.852,0 -1.518,0.2312 -1.998,0.6933 -0.478,0.461 -0.717,1.1172 -0.717,1.9688 0,0.8398 0.229,1.5078 0.688,2.0031 0.458,0.493 1.063,0.7398 1.812,0.7398 0.693,0 1.228,-0.2039 1.604,-0.6082 0.376,-0.4054 0.564,-0.9797 0.564,-1.7265 l 0,-0.4688"
               style="fill:#ffffff;fill-opacity:1;fill-rule:nonzero;stroke:none"
               id="path188" /><path
               d="m 115.441,22.2969 c -0.161,-0.043 -0.339,-0.0789 -0.53,-0.1055 -0.192,-0.0293 -0.364,-0.0422 -0.514,-0.0422 -0.524,0 -0.924,0.1406 -1.198,0.4238 -0.272,0.2825 -0.409,0.7344 -0.409,1.3586 l 0,2.7344 -0.584,0 0,0.7274 0.584,0 0,1.4777 0.865,0 0,-1.4777 1.786,0 0,-0.7274 -1.786,0 0,-2.3437 c 0,-0.2696 0.007,-0.4805 0.019,-0.6328 0.012,-0.1524 0.055,-0.2942 0.13,-0.4258 0.066,-0.1223 0.16,-0.2121 0.278,-0.2707 0.117,-0.0567 0.298,-0.0828 0.54,-0.0828 0.142,0 0.289,0.0195 0.442,0.0605 0.153,0.0422 0.265,0.077 0.332,0.1035 l 0.045,0 0,-0.7773"
               style="fill:#ffffff;fill-opacity:1;fill-rule:nonzero;stroke:none"
               id="path190" /><path
               d="m 123.314,27.3934 -1.34,-5.1434 -0.801,0 -1.321,3.9656 -1.313,-3.9656 -0.796,0 -1.353,5.1434 0.901,0 0.944,-3.9832 1.285,3.9832 0.713,0 1.318,-3.9832 0.891,3.9832 0.872,0"
               style="fill:#ffffff;fill-opacity:1;fill-rule:nonzero;stroke:none"
               id="path192" /><path
               d="m 128.41,24.8191 c 0,0.6661 -0.133,1.1614 -0.392,1.4856 -0.261,0.3223 -0.623,0.4851 -1.086,0.4851 -0.47,0 -0.835,-0.1628 -1.094,-0.4851 -0.26,-0.3242 -0.39,-0.8195 -0.39,-1.4856 0,-0.6433 0.132,-1.1328 0.393,-1.4656 0.259,-0.3332 0.623,-0.4988 1.091,-0.4988 0.46,0 0.82,0.1637 1.083,0.4949 0.262,0.3281 0.395,0.8192 0.395,1.4695 z m 0.892,0 c 0,-0.8367 -0.215,-1.4988 -0.644,-1.9843 -0.431,-0.484 -1.006,-0.7274 -1.726,-0.7274 -0.729,0 -1.307,0.2434 -1.735,0.7274 -0.427,0.4855 -0.642,1.1476 -0.642,1.9843 0,0.8379 0.215,1.5012 0.642,1.9856 0.428,0.4883 1.006,0.7312 1.735,0.7312 0.72,0 1.295,-0.2429 1.726,-0.7312 0.429,-0.4844 0.644,-1.1477 0.644,-1.9856"
               style="fill:#ffffff;fill-opacity:1;fill-rule:nonzero;stroke:none"
               id="path194" /><path
               d="m 134.21,26.4492 -0.047,0 c -0.128,0.0313 -0.254,0.0528 -0.374,0.0676 -0.122,0.0145 -0.265,0.0203 -0.433,0.0203 -0.266,0 -0.525,-0.0586 -0.773,-0.1777 -0.248,-0.1192 -0.488,-0.2703 -0.719,-0.4578 l 0,-3.6516 -0.864,0 0,5.1434 0.864,0 0,-0.7594 c 0.346,0.2754 0.648,0.4715 0.91,0.5867 0.263,0.1141 0.531,0.1727 0.805,0.1727 0.149,0 0.258,-0.0039 0.325,-0.0125 0.068,-0.0059 0.17,-0.0215 0.306,-0.043 l 0,-0.8887"
               style="fill:#ffffff;fill-opacity:1;fill-rule:nonzero;stroke:none"
               id="path196" /><path
               d="m 140.05,22.25 -1.142,0 -2.061,2.2512 -0.562,-0.5332 0,-1.718 -0.868,0 0,7.1648 0.868,0 0,-4.5957 2.499,2.5743 1.091,0 -2.39,-2.3758 2.565,-2.7676"
               style="fill:#ffffff;fill-opacity:1;fill-rule:nonzero;stroke:none"
               id="path198" /></g><g
             id="g4933"><path
               d="m 74.2895,11.8855 c 0,0.5364 -0.0942,0.9895 -0.2813,1.3586 -0.1863,0.368 -0.466,0.6582 -0.8371,0.8692 -0.2707,0.1531 -0.5582,0.2597 -0.8609,0.3203 -0.3047,0.0594 -0.6676,0.0898 -1.0911,0.0898 l -0.8574,0 0,-5.28981 0.8574,0 c 0.4391,0 0.8207,0.03204 1.1477,0.09532 0.3281,0.06562 0.6277,0.18554 0.9008,0.36054 0.3414,0.21758 0.5969,0.50465 0.766,0.86015 0.1699,0.3567 0.2559,0.8012 0.2559,1.3359 z m 0.9515,-0.0132 c 0,-0.6243 -0.1351,-1.1899 -0.4058,-1.6957 C 74.5629,9.67109 74.2016,9.27813 73.7512,8.99883 73.4375,8.80547 73.0879,8.66484 72.7043,8.58008 72.3184,8.49414 71.8109,8.45039 71.1813,8.45039 l -1.7305,0 0,6.85511 1.7117,0 c 0.6691,0 1.202,-0.0477 1.5965,-0.1446 0.3941,-0.0964 0.7281,-0.2293 1.0012,-0.3992 0.4664,-0.291 0.8296,-0.6789 1.091,-1.164 0.2609,-0.4856 0.3898,-1.0606 0.3898,-1.7254"
               style="fill:#ffffff;fill-opacity:1;fill-rule:nonzero;stroke:none"
               id="path200" /><path
               d="m 81.4527,13.593 -3.0019,-7.03948 -0.9254,0 0.9574,2.1457 -2.048,4.89378 0.9386,0 1.5801,-3.81175 1.5926,3.81175 0.9066,0"
               style="fill:#ffffff;fill-opacity:1;fill-rule:nonzero;stroke:none"
               id="path202" /><path
               d="m 87.2434,8.45039 -0.8657,0 0,2.92971 c 0,0.234 -0.0132,0.4578 -0.0418,0.6637 -0.0261,0.2074 -0.0781,0.3695 -0.1511,0.4867 -0.0774,0.1289 -0.1875,0.2246 -0.3313,0.2871 -0.1445,0.0625 -0.332,0.0945 -0.5625,0.0945 -0.2363,0 -0.4836,-0.0586 -0.7414,-0.175 -0.2574,-0.1172 -0.5047,-0.2652 -0.7422,-0.4461 l 0,-3.84061 -0.8636,0 0,5.14261 0.8636,0 0,-0.5707 c 0.2719,0.2238 0.5512,0.3996 0.8391,0.5246 0.289,0.1258 0.584,0.1894 0.8894,0.1894 0.5547,0 0.9778,-0.1679 1.27,-0.5019 0.2918,-0.3352 0.4375,-0.8164 0.4375,-1.4461 l 0,-3.33791"
               style="fill:#ffffff;fill-opacity:1;fill-rule:nonzero;stroke:none"
               id="path204" /><path
               d="m 92.4023,9.71563 0,1.43277 c -0.2636,-0.0144 -0.5742,-0.039 -0.9316,-0.0695 -0.3574,-0.0301 -0.6414,-0.075 -0.8496,-0.1336 -0.2488,-0.0703 -0.4492,-0.1797 -0.6035,-0.3293 -0.1531,-0.148 -0.2293,-0.3523 -0.2293,-0.614 0,-0.29419 0.0887,-0.51684 0.2664,-0.66528 0.1766,-0.14922 0.4492,-0.22266 0.8152,-0.22266 0.3031,0 0.5813,0.0586 0.8332,0.17696 0.2512,0.11836 0.4856,0.26054 0.6992,0.42461 z m 0.8614,-1.26524 -0.8614,0 0,0.54844 C 92.3262,8.94648 92.2227,8.87383 92.0918,8.78047 91.9617,8.68633 91.8359,8.61211 91.7129,8.55547 91.5676,8.48516 91.4016,8.42773 91.2148,8.37891 91.0281,8.33203 90.8086,8.30742 90.5566,8.30742 c -0.4636,0 -0.8562,0.1543 -1.1789,0.46094 -0.3218,0.30703 -0.4832,0.69844 -0.4832,1.17422 0,0.38832 0.084,0.70472 0.252,0.94612 0.166,0.2414 0.4055,0.4304 0.7148,0.5672 0.3133,0.1386 0.6895,0.2328 1.1282,0.2812 0.439,0.05 0.9097,0.0859 1.4128,0.1106 l 0,0.1336 c 0,0.1972 -0.0339,0.3605 -0.1027,0.4894 -0.0691,0.1277 -0.1695,0.2297 -0.2976,0.3027 -0.1219,0.0704 -0.2696,0.1192 -0.4422,0.1438 -0.1711,0.0242 -0.352,0.0359 -0.5383,0.0359 -0.2277,0 -0.4793,-0.0293 -0.7598,-0.089 -0.2793,-0.0594 -0.5676,-0.1461 -0.8652,-0.2606 l -0.0457,0 0,0.8789 c 0.1687,0.0457 0.4129,0.0977 0.7312,0.1524 0.3203,0.0554 0.6336,0.0832 0.9453,0.0832 0.3614,0 0.677,-0.0305 0.9446,-0.0903 0.2691,-0.0593 0.5008,-0.1609 0.698,-0.3054 0.1934,-0.1418 0.3406,-0.3243 0.4414,-0.5489 0.1028,-0.2238 0.1524,-0.5011 0.1524,-0.8332 l 0,-3.48981"
               style="fill:#ffffff;fill-opacity:1;fill-rule:nonzero;stroke:none"
               id="path206" /><path
               d="m 102.794,8.45039 -0.866,0 0,2.92971 c 0,0.2195 -0.011,0.4324 -0.031,0.6383 -0.02,0.2062 -0.062,0.3695 -0.126,0.4921 -0.071,0.1329 -0.171,0.2325 -0.304,0.2993 -0.132,0.0679 -0.322,0.1023 -0.571,0.1023 -0.243,0 -0.485,-0.0605 -0.727,-0.1816 -0.2432,-0.1219 -0.4854,-0.2754 -0.7288,-0.4629 0.0102,-0.0703 0.0176,-0.1524 0.0239,-0.2461 0.0054,-0.0938 0.0093,-0.1867 0.0093,-0.2793 l 0,-3.29181 -0.866,0 0,2.92971 c 0,0.2254 -0.009,0.4414 -0.0293,0.6465 -0.0195,0.2031 -0.0613,0.366 -0.1261,0.489 -0.0704,0.1328 -0.1727,0.2317 -0.3036,0.2969 -0.1328,0.0664 -0.323,0.0996 -0.5722,0.0996 -0.2356,0 -0.4739,-0.0586 -0.711,-0.175 -0.2382,-0.1172 -0.4746,-0.2652 -0.7121,-0.4461 l 0,-3.84061 -0.864,0 0,5.14261 0.864,0 0,-0.5707 c 0.2715,0.2238 0.541,0.3996 0.8086,0.5246 0.2688,0.1258 0.5551,0.1894 0.8598,0.1894 0.3496,0 0.6465,-0.0742 0.8902,-0.2207 0.2446,-0.1476 0.4262,-0.3515 0.5449,-0.6133 0.3508,0.2942 0.6692,0.5079 0.9574,0.6375 0.29,0.1301 0.598,0.1965 0.926,0.1965 0.565,0 0.982,-0.1718 1.251,-0.5136 0.268,-0.3426 0.403,-0.8204 0.403,-1.4344 l 0,-3.33791"
               style="fill:#ffffff;fill-opacity:1;fill-rule:nonzero;stroke:none"
               id="path208" /><path
               d="m 105.692,8.45039 -0.864,0 0,5.14261 0.864,0 0,-5.14261 z m 0.056,6.00351 -0.976,0 0,0.8984 0.976,0 0,-0.8984"
               style="fill:#ffffff;fill-opacity:1;fill-rule:nonzero;stroke:none"
               id="path210" /><path
               d="m 111.567,8.77344 c -0.289,-0.13867 -0.562,-0.2461 -0.821,-0.32305 -0.261,-0.07539 -0.536,-0.11445 -0.827,-0.11445 -0.372,0 -0.712,0.05351 -1.023,0.16289 -0.309,0.10859 -0.575,0.27461 -0.795,0.49531 -0.225,0.2207 -0.399,0.5 -0.52,0.83867 -0.123,0.33709 -0.185,0.73089 -0.185,1.18169 0,0.8418 0.232,1.5011 0.693,1.9804 0.462,0.4785 1.071,0.718 1.83,0.718 0.295,0 0.584,-0.0418 0.867,-0.125 0.284,-0.0813 0.544,-0.1836 0.781,-0.3035 l 0,-0.9621 -0.046,0 c -0.264,0.205 -0.537,0.3632 -0.818,0.4746 -0.279,0.1101 -0.554,0.166 -0.82,0.166 -0.491,0 -0.88,-0.166 -1.163,-0.4949 -0.283,-0.3301 -0.426,-0.8149 -0.426,-1.4535 0,-0.6192 0.139,-1.09575 0.416,-1.42973 0.278,-0.33204 0.668,-0.49883 1.173,-0.49883 0.174,0 0.352,0.02344 0.533,0.06953 0.181,0.0457 0.344,0.10508 0.488,0.17851 0.126,0.06446 0.244,0.13399 0.355,0.20508 0.11,0.07305 0.198,0.13555 0.262,0.18672 l 0.046,0 0,-0.95234"
               style="fill:#ffffff;fill-opacity:1;fill-rule:nonzero;stroke:none"
               id="path212" /><path
               d="m 116.708,9.93359 c 0,-0.46953 -0.194,-0.85468 -0.582,-1.15546 -0.388,-0.30157 -0.919,-0.45196 -1.591,-0.45196 -0.38,0 -0.729,0.0461 -1.047,0.13672 -0.317,0.08984 -0.585,0.18945 -0.8,0.29609 l 0,0.97149 0.046,0 c 0.275,-0.20508 0.579,-0.36914 0.912,-0.49024 0.335,-0.12226 0.655,-0.18046 0.962,-0.18046 0.38,0 0.678,0.06015 0.894,0.1832 0.215,0.12109 0.323,0.31445 0.323,0.58008 0,0.20355 -0.059,0.35665 -0.176,0.46015 -0.117,0.1047 -0.34,0.1934 -0.671,0.2664 -0.124,0.0274 -0.285,0.0606 -0.483,0.0969 -0.197,0.0359 -0.378,0.0762 -0.54,0.1199 -0.45,0.1191 -0.771,0.2949 -0.96,0.5274 -0.189,0.2316 -0.282,0.5167 -0.282,0.8546 0,0.211 0.042,0.4114 0.13,0.5977 0.087,0.1863 0.221,0.3547 0.399,0.5019 0.171,0.1446 0.39,0.2586 0.654,0.3426 0.266,0.084 0.563,0.1274 0.893,0.1274 0.305,0 0.617,-0.0383 0.932,-0.1133 0.315,-0.0754 0.576,-0.166 0.785,-0.2738 l 0,-0.9254 -0.046,0 c -0.222,0.1629 -0.49,0.3004 -0.807,0.4121 -0.316,0.1121 -0.626,0.1676 -0.929,0.1676 -0.317,0 -0.583,-0.0606 -0.801,-0.1805 -0.219,-0.1223 -0.327,-0.3027 -0.327,-0.5418 0,-0.2121 0.066,-0.3715 0.197,-0.4785 0.13,-0.1078 0.338,-0.1953 0.627,-0.2629 0.159,-0.0363 0.338,-0.0735 0.536,-0.1106 0.198,-0.0359 0.363,-0.0703 0.495,-0.1004 0.402,-0.0925 0.712,-0.2507 0.93,-0.4746 0.219,-0.2273 0.327,-0.5273 0.327,-0.90231"
               style="fill:#ffffff;fill-opacity:1;fill-rule:nonzero;stroke:none"
               id="path214" /></g><g
             id="g4927"><path
               d="m 127.207,11.2039 c 0,-0.4969 -0.055,-0.9305 -0.163,-1.30077 -0.108,-0.36875 -0.286,-0.67735 -0.535,-0.92266 -0.238,-0.2332 -0.515,-0.4043 -0.831,-0.51094 -0.315,-0.1082 -0.684,-0.16211 -1.103,-0.16211 -0.43,0 -0.804,0.05781 -1.124,0.17227 -0.318,0.11094 -0.589,0.27929 -0.805,0.50078 -0.25,0.25195 -0.427,0.55547 -0.538,0.91094 -0.108,0.35589 -0.163,0.79409 -0.163,1.31249 l 0,4.1016 0.912,0 0,-4.1485 c 0,-0.3711 0.025,-0.664 0.076,-0.8789 0.05,-0.2144 0.136,-0.40896 0.256,-0.58396 0.134,-0.2 0.319,-0.35039 0.55,-0.45117 0.231,-0.10234 0.51,-0.15234 0.836,-0.15234 0.327,0 0.607,0.05 0.837,0.1496 0.23,0.1004 0.415,0.25079 0.553,0.45391 0.119,0.175 0.204,0.37496 0.255,0.59966 0.051,0.2265 0.076,0.507 0.076,0.841 l 0,4.1707 0.911,0 0,-4.1016"
               style="fill:#ffffff;fill-opacity:1;fill-rule:nonzero;stroke:none"
               id="path216" /><path
               d="m 133.536,8.45039 -0.864,0 0,2.92971 c 0,0.234 -0.015,0.4578 -0.041,0.6637 -0.028,0.2074 -0.08,0.3695 -0.152,0.4867 -0.077,0.1289 -0.187,0.2246 -0.333,0.2871 -0.143,0.0625 -0.331,0.0945 -0.562,0.0945 -0.234,0 -0.481,-0.0586 -0.74,-0.175 -0.257,-0.1172 -0.505,-0.2652 -0.741,-0.4461 l 0,-3.84061 -0.865,0 0,5.14261 0.865,0 0,-0.5707 c 0.269,0.2238 0.548,0.3996 0.838,0.5246 0.288,0.1258 0.584,0.1894 0.888,0.1894 0.557,0 0.98,-0.1679 1.272,-0.5019 0.291,-0.3352 0.435,-0.8164 0.435,-1.4461 l 0,-3.33791"
               style="fill:#ffffff;fill-opacity:1;fill-rule:nonzero;stroke:none"
               id="path218" /><path
               d="m 136.436,8.45039 -0.865,0 0,5.14261 0.865,0 0,-5.14261 z m 0.054,6.00351 -0.973,0 0,0.8984 0.973,0 0,-0.8984"
               style="fill:#ffffff;fill-opacity:1;fill-rule:nonzero;stroke:none"
               id="path220" /><path
               d="m 141.178,8.49727 c -0.161,-0.04336 -0.339,-0.0793 -0.531,-0.10586 -0.192,-0.0293 -0.364,-0.0418 -0.512,-0.0418 -0.526,0 -0.926,0.14062 -1.198,0.42383 -0.274,0.28203 -0.411,0.73437 -0.411,1.35816 l 0,2.7344 -0.584,0 0,0.727 0.584,0 0,1.4785 0.865,0 0,-1.4785 1.787,0 0,-0.727 -1.787,0 0,-2.3437 c 0,-0.2703 0.007,-0.4813 0.02,-0.63285 0.011,-0.15234 0.056,-0.29375 0.129,-0.42539 0.067,-0.12226 0.16,-0.21289 0.279,-0.2707 0.116,-0.05547 0.298,-0.08398 0.538,-0.08398 0.144,0 0.29,0.0207 0.445,0.06171 0.151,0.0418 0.264,0.07696 0.329,0.10313 l 0.047,0 0,-0.77695"
               style="fill:#ffffff;fill-opacity:1;fill-rule:nonzero;stroke:none"
               id="path222" /></g></g></g></g></g></svg>