<?xml version="1.0" encoding="UTF-8" standalone="no"?>
<!-- Created with Inkscape (http://www.inkscape.org/) -->

<svg
   xmlns:dc="http://purl.org/dc/elements/1.1/"
   xmlns:cc="http://creativecommons.org/ns#"
   xmlns:rdf="http://www.w3.org/1999/02/22-rdf-syntax-ns#"
   xmlns:svg="http://www.w3.org/2000/svg"
   xmlns="http://www.w3.org/2000/svg"
   xmlns:xlink="http://www.w3.org/1999/xlink"
   xmlns:sodipodi="http://sodipodi.sourceforge.net/DTD/sodipodi-0.dtd"
   xmlns:inkscape="http://www.inkscape.org/namespaces/inkscape"
   width="400"
   height="190"
   viewBox="0 0 399.99999 190"
   id="svg4530"
   version="1.1"
   inkscape:version="0.91 r13725"
   sodipodi:docname="ssi_title_light.svg">
  <defs
     id="defs4532">
    <radialGradient
       inkscape:collect="always"
       xlink:href="#linearGradient4371"
       id="radialGradient4377"
       cx="92.423683"
       cy="248.28847"
       fx="92.423683"
       fy="248.28847"
       r="63.894535"
       gradientTransform="matrix(1,0,0,0.06795719,0.85379847,250.19905)"
       gradientUnits="userSpaceOnUse" />
    <linearGradient
       inkscape:collect="always"
       id="linearGradient4371">
      <stop
         style="stop-color:#000000;stop-opacity:1;"
         offset="0"
         id="stop4373" />
      <stop
         style="stop-color:#000000;stop-opacity:0;"
         offset="1"
         id="stop4375" />
    </linearGradient>
    <filter
       inkscape:collect="always"
       style="color-interpolation-filters:sRGB"
       id="filter4543"
       x="-0.019727273"
       width="1.0394545"
       y="-0.32549998"
       height="1.651">
      <feGaussianBlur
         inkscape:collect="always"
         stdDeviation="1.0421677"
         id="feGaussianBlur4545" />
    </filter>
  </defs>
  <sodipodi:namedview
     id="base"
     pagecolor="#ffffff"
     bordercolor="#666666"
     borderopacity="1.0"
     inkscape:pageopacity="0.0"
     inkscape:pageshadow="2"
     inkscape:zoom="1.4"
     inkscape:cx="121.82515"
     inkscape:cy="-40.443228"
     inkscape:document-units="px"
     inkscape:current-layer="layer1"
     showgrid="false"
     units="px"
     fit-margin-top="0"
     fit-margin-left="0"
     fit-margin-right="0"
     fit-margin-bottom="0"
     inkscape:window-width="1920"
     inkscape:window-height="1056"
     inkscape:window-x="1200"
     inkscape:window-y="24"
     inkscape:window-maximized="1" />
  <metadata
     id="metadata4535">
    <rdf:RDF>
      <cc:Work
         rdf:about="">
        <dc:format>image/svg+xml</dc:format>
        <dc:type
           rdf:resource="http://purl.org/dc/dcmitype/StillImage" />
        <dc:title></dc:title>
      </cc:Work>
    </rdf:RDF>
  </metadata>
  <g
     inkscape:label="Layer 1"
     inkscape:groupmode="layer"
     id="layer1"
     transform="translate(-198.63708,-274.3841)">
    <g
       transform="translate(-10.647702,-106.83933)"
       id="g4474">
      <g
         transform="translate(209.16715,376.06536)"
         id="g4261">
        <path
           style="fill:#000000"
           d="m 162.61491,97.800001 c 0,-1.00144 0.4,-1.2 2.41741,-1.2 l 2.41742,0 -0.16742,-7.95 -0.16741,-7.95 -2.25,-0.18622 c -1.47184,-0.12181 -2.25,-0.48496 -2.25,-1.05 0,-0.69412 1.17848,-0.86378 6,-0.86378 4.93333,0 6,0.16 6,0.9 0,0.65 -0.66667,0.9 -2.4,0.9 l -2.4,0 0,8.1 0,8.1 2.4,0 c 1.99999,0 2.4,0.2 2.4,1.2 0,1.12 -0.40001,1.2 -6,1.2 -5.6,0 -6,-0.08 -6,-1.2 z"
           id="path4257"
           inkscape:connector-curvature="0" />
        <path
           style="fill:#000000"
           d="m 179.41491,91.200001 c 0,-7.4 0.0615,-7.8 1.2,-7.8 0.66666,0 1.2,0.4 1.2,0.9 0,1.1476 0.54028,1.14002 1.82833,-0.0256 0.56256,-0.50911 1.98149,-1.08122 3.15317,-1.27135 1.75438,-0.2847 2.40283,-0.0732 3.67441,1.19837 1.47239,1.47235 1.54409,1.85179 1.54409,8.17133 0,6.22727 -0.0724,6.62727 -1.2,6.62727 -1.11637,0 -1.2,-0.4 -1.2,-5.73944 0,-3.1567 -0.2795,-6.2617 -0.62111,-6.9 -0.81033,-1.51411 -3.01412,-1.47752 -4.99798,0.083 -1.50815,1.18631 -1.58091,1.50388 -1.58091,6.9 0,5.63355 -0.006,5.65645 -1.5,5.65645 l -1.5,0 0,-7.8 z"
           id="path4255"
           inkscape:connector-curvature="0" />
        <path
           style="fill:#000000"
           d="m 197.81491,98.600001 c -0.22001,-0.22 -0.40001,-0.78651 -0.40001,-1.25891 0,-0.69287 0.67242,-0.78087 3.47823,-0.45522 2.94108,0.34135 3.70252,0.22207 4.93055,-0.77232 1.22388,-0.99104 1.33014,-1.32322 0.67559,-2.1119 -0.42719,-0.51474 -2.10252,-1.37624 -3.72294,-1.91446 -2.84651,-0.94546 -5.36143,-3.21328 -5.36143,-4.83464 0,-0.4321 0.60792,-1.49238 1.35094,-2.35619 2.20616,-2.56482 9.44906,-2.88604 9.44906,-0.41907 0,0.86873 -0.42368,1.01402 -2.40584,0.82499 -3.70457,-0.35329 -5.50858,0.28386 -5.28311,1.86589 0.13905,0.97565 1.04031,1.66455 3.41272,2.60861 4.21677,1.678 5.47623,2.82192 5.47623,4.9738 0,2.86535 -2.33887,4.24942 -7.18091,4.24942 -2.2105,0 -4.19909,-0.18 -4.41908,-0.4 z"
           id="path4253"
           inkscape:connector-curvature="0" />
        <path
           style="fill:#000000"
           d="m 219.4566,98.250001 c -1.56482,-1.18828 -2.2417,-3.78172 -2.2417,-8.58906 l 0,-4.46094 -2.1,0 c -1.46666,0 -2.1,-0.27143 -2.1,-0.9 0,-0.62857 0.63334,-0.9 2.1,-0.9 2.05001,0 2.1,-0.0571 2.1,-2.4 0,-1.32 0.24792,-2.4 0.55093,-2.4 0.30301,0 0.97801,-0.16388 1.5,-0.36419 0.78079,-0.29962 0.94907,0.12592 0.94907,2.4 l 0,2.76419 3.3,0 c 2.53334,0 3.3,0.20909 3.3,0.9 0,0.69091 -0.76666,0.9 -3.3,0.9 l -3.3,0 0,5.02654 c 0,5.8098 0.56642,6.67764 4.26212,6.53027 1.9486,-0.0777 2.33788,0.10129 2.33788,1.07498 0,1.01091 -0.42889,1.16821 -3.18532,1.16821 -1.75193,0 -3.62977,-0.3375 -4.17298,-0.75 z"
           id="path4251"
           inkscape:connector-curvature="0" />
        <path
           style="fill:#000000"
           d="m 232.2149,97.800001 c 0,-1 0.40001,-1.2 2.4,-1.2 l 2.4,0 0,-5.7 0,-5.7 -2.1,0 c -1.46666,0 -2.1,-0.27143 -2.1,-0.9 0,-0.7 0.8,-0.9 3.6,-0.9 l 3.6,0 0,6.6 0,6.6 2.4,0 c 2,0 2.4,0.2 2.4,1.2 0,1.12381 -0.4,1.2 -6.3,1.2 -5.89999,0 -6.3,-0.0762 -6.3,-1.2 z"
           id="path4249"
           inkscape:connector-curvature="0" />
        <path
           style="fill:#000000"
           d="m 254.8566,98.250001 c -1.56482,-1.18828 -2.2417,-3.78172 -2.2417,-8.58906 l 0,-4.46094 -2.1,0 c -1.46666,0 -2.1,-0.27143 -2.1,-0.9 0,-0.62857 0.63334,-0.9 2.1,-0.9 2.05001,0 2.1,-0.0571 2.1,-2.4 0,-1.32 0.24792,-2.4 0.55093,-2.4 0.30301,0 0.97801,-0.16388 1.5,-0.36419 0.78079,-0.29962 0.94907,0.12592 0.94907,2.4 l 0,2.76419 3.3,0 c 2.53334,0 3.3,0.20909 3.3,0.9 0,0.69091 -0.76666,0.9 -3.3,0.9 l -3.3,0 0,5.02654 c 0,5.8098 0.56642,6.67764 4.26212,6.53027 1.9486,-0.0777 2.33788,0.10129 2.33788,1.07498 0,1.01091 -0.42889,1.16821 -3.18532,1.16821 -1.75193,0 -3.62977,-0.3375 -4.17298,-0.75 z"
           id="path4247"
           inkscape:connector-curvature="0" />
        <path
           style="fill:#000000"
           d="m 269.28853,98.365161 c -1.47797,-0.86161 -2.26644,-4.33989 -2.27028,-10.01516 -0.003,-4.88089 0.0176,-4.95 1.49665,-4.95 1.49681,0 1.50002,0.0124 1.50919,5.85 0.005,3.2175 0.24435,6.22125 0.53176,6.675 0.8058,1.27211 3.55927,0.97792 5.19055,-0.55459 1.34287,-1.26156 1.4685,-1.83262 1.4685,-6.675 0,-4.89541 0.0906,-5.29541 1.2,-5.29541 1.13847,0 1.2,0.4 1.2,7.8 0,6.37027 -0.15756,7.8 -0.85956,7.8 -0.47277,0 -1.0323,-0.54423 -1.24342,-1.2094 l -0.38385,-1.2094 -1.5375,1.2094 c -1.63821,1.28862 -4.6121,1.55975 -6.30204,0.57456 z"
           id="path4245"
           inkscape:connector-curvature="0" />
        <path
           style="fill:#000000"
           d="m 289.6566,98.250001 c -1.56483,-1.18828 -2.2417,-3.78172 -2.2417,-8.58906 l 0,-4.46094 -2.1,0 c -1.46666,0 -2.1,-0.27143 -2.1,-0.9 0,-0.62857 0.63334,-0.9 2.1,-0.9 2.05,0 2.1,-0.0571 2.1,-2.4 0,-1.32 0.24792,-2.4 0.55093,-2.4 0.30301,0 0.97801,-0.16388 1.5,-0.36419 0.78079,-0.29962 0.94907,0.12592 0.94907,2.4 l 0,2.76419 3.3,0 c 2.53333,0 3.3,0.20909 3.3,0.9 0,0.69091 -0.76667,0.9 -3.3,0.9 l -3.3,0 0,5.02654 c 0,5.8098 0.56641,6.67764 4.26212,6.53027 1.9486,-0.0777 2.33788,0.10129 2.33788,1.07498 0,1.01091 -0.42889,1.16821 -3.18532,1.16821 -1.75193,0 -3.62977,-0.3375 -4.17298,-0.75 z"
           id="path4243"
           inkscape:connector-curvature="0" />
        <path
           style="fill:#000000"
           d="m 308.78906,82.951172 c -1.95896,-0.121991 -3.59331,0.575736 -5.17773,2.160156 -3.10585,3.10586 -2.86949,10.084568 0.42969,12.679688 1.34016,1.05418 2.27661,1.230024 5.82812,1.083984 3.56552,-0.14663 4.26642,-0.350099 4.44531,-1.287109 0.18848,-0.98721 -0.0615,-1.065659 -2.23047,-0.699219 -4.22586,0.71396 -7.86914,-1.196793 -7.86914,-4.126953 0,-0.74405 1.04716,-0.949864 5.55078,-1.089844 L 315.31445,91.5 315.10742,89.410156 c -0.33882,-3.41855 -1.64615,-5.288616 -4.24219,-6.066406 -0.73539,-0.22033 -1.42318,-0.351914 -2.07617,-0.392578 z m 0.041,2.257812 c 2.03501,-0.0098 3.78515,1.71195 3.78515,3.72461 0,0.92042 -0.57642,1.066406 -4.20117,1.066406 -4.38123,0 -4.73514,-0.261804 -3.50976,-2.589844 0.93478,-1.77594 1.6739,-2.190372 3.92578,-2.201172 z"
           id="path4241"
           inkscape:connector-curvature="0" />
        <path
           style="fill:#000000"
           d="m 236.50205,79.605011 c -1.12057,-1.35021 -0.17631,-2.89804 1.6395,-2.68747 1.22959,0.1426 1.57335,0.5102 1.57335,1.68246 0,1.74667 -2.06201,2.39168 -3.21285,1.00501 z"
           id="path4233"
           inkscape:connector-curvature="0" />
      </g>
      <g
         transform="translate(209.16715,376.06536)"
         id="g4274">
        <path
           style="fill:#000000"
           d="m 374.4149,68.400001 c 0,-0.886 0.4,-1.2 1.52865,-1.2 1.69436,0 4.48909,-2.60352 4.44149,-4.13761 -0.0164,-0.52932 -1.34049,-4.20239 -2.94237,-8.16239 -2.29066,-5.66275 -2.72517,-7.24286 -2.03509,-7.40075 1.74105,-0.39833 2.34556,0.44128 4.40985,6.12489 1.15361,3.17624 2.24895,5.77518 2.43409,5.77542 0.18514,2.4e-4 1.26514,-2.63206 2.4,-5.84956 1.71093,-4.85075 2.29398,-5.88275 3.41338,-6.04173 0.7425,-0.10545 1.35,-2.2e-4 1.35,0.23385 0,1.02092 -5.63228,15.18958 -6.92864,17.4298 -2.14184,3.7013 -8.07136,6.07276 -8.07136,3.22808 z"
           id="path4231"
           inkscape:connector-curvature="0" />
        <path
           style="fill:#000000"
           d="m 161.86491,62.653581 c -0.2475,-0.24948 -0.45027,-0.8811 -0.45059,-1.4036 -4.9e-4,-0.7896 0.83142,-0.95 4.9272,-0.95 4.59687,0 4.97621,-0.0964 5.64877,-1.43596 1.09061,-2.17214 0.44597,-2.97273 -4.20796,-5.22592 -2.34708,-1.13634 -4.60492,-2.51638 -5.01742,-3.06677 -0.92187,-1.23003 -0.97226,-4.03495 -0.10171,-5.66159 1.70377,-3.18354 11.35171,-4.07701 11.35171,-1.05128 0,0.97785 -0.33426,1.07273 -2.65746,0.7543 -3.56819,-0.48908 -5.64575,0.11829 -6.45116,1.88598 -0.89297,1.95986 0.0305,3.01648 4.27855,4.89515 1.82488,0.80704 3.92818,2.04063 4.67401,2.7413 1.82999,1.71919 1.79024,4.69309 -0.092,6.8813 -1.33644,1.5537 -1.83356,1.69914 -6.45,1.88706 -2.75108,0.11199 -5.20446,-5e-4 -5.45196,-0.24999 z"
           id="path4223"
           inkscape:connector-curvature="0" />
        <path
           style="fill:#000000"
           d="m 180.48853,62.365141 c -1.47797,-0.86162 -2.26644,-4.3399 -2.27028,-10.01516 -0.003,-4.8809 0.0176,-4.95 1.49666,-4.95 1.4968,0 1.50001,0.0125 1.50918,5.85 0.005,3.2175 0.24435,6.22125 0.53176,6.675 0.8058,1.27211 3.55928,0.97791 5.19055,-0.55459 1.34287,-1.26158 1.46851,-1.83265 1.46851,-6.67502 0,-4.89541 0.0906,-5.29541 1.2,-5.29541 1.13846,0 1.2,0.4 1.2,7.8 0,6.37027 -0.15756,7.8 -0.85957,7.8 -0.47276,0 -1.0323,-0.54423 -1.24342,-1.2094 l -0.38385,-1.2094 -1.5375,1.2094 c -1.63821,1.28862 -4.6121,1.55975 -6.30204,0.57456 z"
           id="path4221"
           inkscape:connector-curvature="0" />
        <path
           style="fill:#000000"
           d="m 195.41491,62.599981 c -0.22,-0.22002 -0.4,-0.78653 -0.4,-1.25893 0,-0.69287 0.67242,-0.78087 3.47822,-0.45522 2.94108,0.34135 3.70252,0.22207 4.93055,-0.77232 1.22388,-0.99104 1.33014,-1.32322 0.67559,-2.1119 -0.42719,-0.51474 -2.10252,-1.37625 -3.72294,-1.91446 -2.84651,-0.94546 -5.36142,-3.21328 -5.36142,-4.83465 0,-0.43209 0.60792,-1.49238 1.35093,-2.35618 2.20616,-2.56482 9.44906,-2.88605 9.44906,-0.41907 0,0.86873 -0.42368,1.01402 -2.40584,0.82499 -3.70457,-0.35329 -5.50858,0.28385 -5.28311,1.86589 0.13905,0.97564 1.04031,1.66455 3.41272,2.60861 4.21677,1.678 5.47623,2.82191 5.47623,4.9738 0,2.86535 -2.33887,4.24942 -7.18091,4.24942 -2.2105,0 -4.19909,-0.18 -4.41908,-0.4 z"
           id="path4219"
           inkscape:connector-curvature="0" />
        <path
           style="fill:#000000"
           d="m 216.4566,62.249961 c -1.56482,-1.18828 -2.2417,-3.78172 -2.2417,-8.58906 l 0,-4.46094 -2.1,0 c -1.46666,0 -2.1,-0.27143 -2.1,-0.9 0,-0.62857 0.63334,-0.9 2.1,-0.9 2.05001,0 2.1,-0.0571 2.1,-2.4 0,-1.32 0.24792,-2.4 0.55093,-2.4 0.30301,0 0.97801,-0.16389 1.5,-0.36419 0.78079,-0.29962 0.94907,0.12592 0.94907,2.4 l 0,2.76419 3.3,0 c 2.53334,0 3.3,0.20909 3.3,0.9 0,0.69091 -0.76666,0.9 -3.3,0.9 l -3.3,0 0,5.02653 c 0,5.80981 0.56642,6.67765 4.26212,6.53028 1.9486,-0.0777 2.33788,0.10129 2.33788,1.07498 0,1.01091 -0.42889,1.16821 -3.18532,1.16821 -1.75193,0 -3.62977,-0.3375 -4.17298,-0.75 z"
           id="path4217"
           inkscape:connector-curvature="0" />
        <path
           style="fill:#000000"
           d="m 233.35938,46.931641 c -2.2551,0.09742 -4.44459,0.848316 -4.625,1.785156 -0.16144,0.83821 0.30642,0.9306 3.33203,0.65625 3.92952,-0.35632 5.76833,0.676981 5.42968,3.050781 -0.15734,1.10276 -0.67998,1.316742 -3.86914,1.576172 -2.4591,0.20004 -4.10764,0.681209 -4.94922,1.443359 -1.64713,1.49169 -1.67927,4.740642 -0.0625,6.357422 1.4535,1.4535 4.7194,1.580723 7.22852,0.283203 1.58676,-0.82054 1.77148,-0.82054 1.77148,0 0,0.51541 0.52358,0.916016 1.19922,0.916016 1.1273,0 1.20117,-0.399609 1.20117,-6.599609 0,-7.46441 -0.54153,-8.596629 -4.45117,-9.330079 -0.69431,-0.130254 -1.45338,-0.171146 -2.20507,-0.138671 z m 1.28906,8.86914 c 2.76834,0 2.96679,0.09953 2.96679,1.507813 0,1.057979 -0.58245,1.863604 -1.94921,2.697265 0,0 -0.002,0 -0.002,0 -2.35479,1.435418 -3.65439,1.503797 -4.90625,0.251953 -1.17147,-1.17131 -1.17305,-1.464159 -0.01,-3.125 0.75101,-1.072199 1.51561,-1.332031 3.90039,-1.332031 z"
           id="path4215"
           inkscape:connector-curvature="0" />
        <path
           style="fill:#000000"
           d="m 244.8149,61.799961 c 0,-1 0.40001,-1.2 2.4,-1.2 l 2.4,0 0,-5.7 0,-5.7 -2.1,0 c -1.46666,0 -2.1,-0.27143 -2.1,-0.9 0,-0.7 0.8,-0.9 3.6,-0.9 l 3.6,0 0,6.6 0,6.6 2.4,0 c 2,0 2.4,0.2 2.4,1.2 0,1.12381 -0.4,1.2 -6.3,1.2 -5.89999,0 -6.3,-0.0762 -6.3,-1.2 z"
           id="path4211"
           inkscape:connector-curvature="0" />
        <path
           style="fill:#000000"
           d="m 260.4149,55.199961 c 0,-7.4 0.0615,-7.8 1.2,-7.8 0.66667,0 1.2,0.4 1.2,0.9 0,1.1476 0.54029,1.14002 1.82834,-0.0256 0.56256,-0.50911 1.98148,-1.08121 3.15317,-1.27135 1.75438,-0.2847 2.40283,-0.0732 3.67441,1.19837 1.47238,1.47238 1.54408,1.85181 1.54408,8.17135 0,6.22727 -0.0724,6.62727 -1.2,6.62727 -1.11636,0 -1.2,-0.4 -1.2,-5.73944 0,-3.1567 -0.27949,-6.2617 -0.6211,-6.9 -0.81033,-1.51411 -3.01412,-1.47751 -4.99798,0.083 -1.50815,1.18631 -1.58092,1.50389 -1.58092,6.9 0,5.63355 -0.006,5.65645 -1.5,5.65645 l -1.5,0 0,-7.8 z"
           id="path4209"
           inkscape:connector-curvature="0" />
        <path
           style="fill:#000000"
           d="m 282.56055,46.931641 c -2.2551,0.09742 -4.44459,0.848316 -4.625,1.785156 -0.16143,0.83821 0.30447,0.9306 3.33007,0.65625 3.92952,-0.35632 5.77031,0.676981 5.43165,3.050781 -0.15733,1.10276 -0.68193,1.316742 -3.8711,1.576172 -2.4591,0.20004 -4.10763,0.681209 -4.94922,1.443359 -1.64714,1.49169 -1.67928,4.740642 -0.0625,6.357422 1.4535,1.4535 4.72135,1.580723 7.23047,0.283203 1.58676,-0.82054 1.76953,-0.82054 1.76953,0 0,0.51541 0.52554,0.916016 1.20117,0.916016 1.12731,0 1.19922,-0.399609 1.19922,-6.599609 0,-7.46441 -0.53959,-8.596629 -4.44922,-9.330079 -0.69431,-0.130254 -1.45338,-0.171146 -2.20507,-0.138671 z m 1.28906,8.86914 c 2.76834,0 2.96484,0.09953 2.96484,1.507813 0,1.05837 -0.58137,1.863275 -1.94922,2.697265 -2.35578,1.43634 -3.65608,1.504073 -4.9082,0.251953 -1.17147,-1.17131 -1.17111,-1.464159 -0.008,-3.125 0.751,-1.072199 1.51561,-1.332031 3.90039,-1.332031 z"
           id="path4207"
           inkscape:connector-curvature="0" />
        <path
           style="fill:#000000"
           d="m 293.41406,40.800781 0,10.517578 c 0,10.33856 0.0248,10.530544 1.35156,11.095703 0.74251,0.316281 2.89805,0.492719 4.79102,0.392579 2.61725,-0.13845 3.79993,-0.517012 4.93359,-1.582032 2.76113,-2.59395 3.29271,-6.824207 1.44922,-11.523437 -1.16321,-2.96512 -5.81583,-3.657779 -8.47461,-1.261719 -0.9904,0.89247 -1.05078,0.703337 -1.05078,-3.345703 0,-4.17919 -0.0398,-4.292969 -1.5,-4.292969 l -1.5,0 z m 7.50782,8.410157 c 1.93374,-0.05461 3.29296,2.044555 3.29296,5.755859 0,2.07969 -0.34637,3.509337 -1.05078,4.341797 -1.13088,1.33648 -3.2355,1.912545 -5.39844,1.478515 -1.24514,-0.24986 -1.35156,-0.595311 -1.35156,-4.457031 0,-3.75696 0.16332,-4.337953 1.58789,-5.658203 1.04247,-0.966122 2.04095,-1.436115 2.91993,-1.460937 z"
           id="path4203"
           inkscape:connector-curvature="0" />
        <path
           style="fill:#000000"
           d="m 310.2149,61.799961 c 0,-1 0.4,-1.2 2.4,-1.2 l 2.4,0 0,-5.7 0,-5.7 -2.1,0 c -1.46666,0 -2.1,-0.27143 -2.1,-0.9 0,-0.7 0.8,-0.9 3.6,-0.9 l 3.6,0 0,6.6 0,6.6 2.4,0 c 2,0 2.4,0.2 2.4,1.2 0,1.12381 -0.4,1.2 -6.3,1.2 -5.9,0 -6.3,-0.0762 -6.3,-1.2 z"
           id="path4199"
           inkscape:connector-curvature="0" />
        <path
           style="fill:#000000"
           d="m 327.0149,61.799961 c 0,-1 0.4,-1.2 2.4,-1.2 l 2.4,0 0,-9 0,-9 -2.1,0 c -1.46666,0 -2.1,-0.27143 -2.1,-0.9 0,-0.7 0.8,-0.9 3.6,-0.9 l 3.6,0 0,9.9 0,9.9 2.4,0 c 2,0 2.4,0.2 2.4,1.2 0,1.12381 -0.4,1.2 -6.3,1.2 -5.9,0 -6.3,-0.0762 -6.3,-1.2 z"
           id="path4197"
           inkscape:connector-curvature="0" />
        <path
           style="fill:#000000"
           d="m 343.2149,61.799961 c 0,-1 0.4,-1.2 2.4,-1.2 l 2.4,0 0,-5.7 0,-5.7 -2.1,0 c -1.46666,0 -2.1,-0.27143 -2.1,-0.9 0,-0.7 0.8,-0.9 3.6,-0.9 l 3.6,0 0,6.6 0,6.6 2.4,0 c 2,0 2.4,0.2 2.4,1.2 0,1.12381 -0.4,1.2 -6.3,1.2 -5.9,0 -6.3,-0.0762 -6.3,-1.2 z"
           id="path4195"
           inkscape:connector-curvature="0" />
        <path
           style="fill:#000000"
           d="m 364.0566,62.249961 c -1.56483,-1.18828 -2.2417,-3.78172 -2.2417,-8.58906 l 0,-4.46094 -2.1,0 c -1.46666,0 -2.1,-0.27143 -2.1,-0.9 0,-0.62857 0.63334,-0.9 2.1,-0.9 2.05,0 2.1,-0.0571 2.1,-2.4 0,-1.32 0.24792,-2.4 0.55093,-2.4 0.30301,0 0.97801,-0.16389 1.5,-0.36419 0.78079,-0.29962 0.94907,0.12592 0.94907,2.4 l 0,2.76419 3.3,0 c 2.53333,0 3.3,0.20909 3.3,0.9 0,0.69091 -0.76667,0.9 -3.3,0.9 l -3.3,0 0,5.02653 c 0,5.80981 0.56641,6.67765 4.26212,6.53028 1.94859,-0.0777 2.33788,0.10129 2.33788,1.07498 0,1.01091 -0.42889,1.16821 -3.18532,1.16821 -1.75193,0 -3.62977,-0.3375 -4.17298,-0.75 z"
           id="path4193"
           inkscape:connector-curvature="0" />
        <path
           style="fill:#000000"
           d="m 249.10205,43.605001 c -1.12057,-1.35021 -0.17631,-2.89803 1.6395,-2.68746 1.22959,0.14259 1.57335,0.5102 1.57335,1.68246 0,1.74667 -2.06201,2.39168 -3.21285,1.005 z"
           id="path4189"
           inkscape:connector-curvature="0" />
        <path
           style="fill:#000000"
           d="m 314.50205,43.605001 c -1.12058,-1.35021 -0.17631,-2.89803 1.6395,-2.68746 1.22959,0.14259 1.57335,0.5102 1.57335,1.68246 0,1.74667 -2.06201,2.39168 -3.21285,1.005 z"
           id="path4187"
           inkscape:connector-curvature="0" />
        <path
           style="fill:#000000"
           d="m 347.50205,43.605001 c -1.12058,-1.35021 -0.17631,-2.89803 1.6395,-2.68746 1.22959,0.14259 1.57335,0.5102 1.57335,1.68246 0,1.74667 -2.06201,2.39168 -3.21285,1.005 z"
           id="path4185"
           inkscape:connector-curvature="0" />
      </g>
      <g
         transform="translate(209.16715,376.06536)"
         style="fill:#aa2f35;fill-opacity:1"
         id="g4296">
        <path
           style="fill:#aa2f35;fill-opacity:1"
           d="m 162.46491,27.186401 c -0.5775,-0.15091 -1.05,-0.81279 -1.05,-1.47083 0,-0.85696 0.29792,-1.10892 1.05,-0.88799 4.77444,1.40251 8.38039,0.8227 9.72097,-1.56305 1.15603,-2.0573 0.25341,-3.16348 -4.17097,-5.1116 -4.28458,-1.88656 -6,-3.51535 -6,-5.69696 0,-2.6065198 0.90006,-3.8056598 3.69625,-4.9244798 3.2336,-1.29383 8.30375,-0.79736 8.30375,0.8131 0,0.89092 -0.495,0.99618 -3.62136,0.77004 -2.88225,-0.20849 -3.86193,-0.0443 -4.8,0.8047 -2.4387,2.2069798 -1.22891,4.0289398 4.28856,6.4586198 3.60458,1.58731 5.3328,3.43291 5.3328,5.695 0,2.18848 -1.11249,3.75172 -3.32903,4.67784 -1.91586,0.8005 -7.10631,1.0405 -9.42097,0.43561 z"
           id="path4177"
           inkscape:connector-curvature="0" />
        <path
           style="fill:#aa2f35;fill-opacity:1"
           d="m 187.19531,11.605469 c -1.73168,0.07946 -3.43262,0.815672 -4.95703,2.177734 -1.82566,1.63126 -1.92383,1.937628 -1.92383,6.017578 0,4.09637 0.0916,4.380338 1.95899,6.048828 3.48041,3.10973 9.20779,2.049827 11.16015,-2.064453 2.10428,-4.43443 0.5937,-10.056092 -3.11914,-11.607422 -1.03053,-0.430582 -2.08013,-0.619939 -3.11914,-0.572265 z m 0.0723,2.195312 c 2.01743,0 2.54579,0.285999 3.58984,1.949219 1.71078,2.72536 1.28196,6.789078 -0.91601,8.679688 -3.57173,3.07228 -7.52735,0.351865 -7.52735,-5.177735 0,-3.37184 1.85291,-5.451172 4.85352,-5.451172 z"
           id="path4175"
           inkscape:connector-curvature="0" />
        <path
           style="fill:#aa2f35;fill-opacity:1"
           d="m 203.4149,21.900001 0,-5.7 -2.7,0 c -1.99999,0 -2.7,-0.23333 -2.7,-0.9 0,-0.66667 0.70001,-0.9 2.7,-0.9 2.66282,0 2.7,-0.0277 2.7,-2.01047 0,-4.9801298 1.99179,-6.9895298 6.92823,-6.9895298 1.97491,0 2.67177,0.23474 2.67177,0.9 0,0.66496 -0.69622,0.9 -2.66598,0.9 -3.19782,0 -4.53402,1.45392 -4.53402,4.9334998 l 0,2.2665 3.6,0 c 2.80001,0 3.6,0.2 3.6,0.9 0,0.7 -0.79999,0.9 -3.6,0.9 l -3.6,0 0,5.7 c 0,5.3 -0.0842,5.7 -1.2,5.7 -1.11579,0 -1.2,-0.4 -1.2,-5.7 z"
           id="path4171"
           inkscape:connector-curvature="0" />
        <path
           style="fill:#aa2f35;fill-opacity:1"
           d="m 222.8722,26.215461 c -1.56472,-1.34591 -1.69749,-1.81976 -1.94182,-6.93008 l -0.26226,-5.48538 -2.02661,0 c -1.40143,0 -2.02661,-0.27764 -2.02661,-0.9 0,-0.62857 0.63334,-0.9 2.1,-0.9 2.05001,0 2.1,-0.0571 2.1,-2.3999998 0,-1.9751 0.20604,-2.4 1.16378,-2.4 0.91171,0 1.20412,0.48735 1.35,2.25 l 0.18622,2.2499998 3.45,0.17994 c 2.53118,0.13202 3.45,0.41166 3.45,1.05 0,0.66503 -0.86284,0.87006 -3.66157,0.87006 l -3.66156,0 0.21156,5.14837 c 0.24843,6.04521 1.05633,7.14265 4.89545,6.64988 1.89472,-0.2432 2.25162,-0.12319 2.0946,0.7043 -0.13768,0.72556 -0.94601,1.04654 -2.96545,1.17753 -2.2288,0.14457 -3.10732,-0.10477 -4.45573,-1.26462 z"
           id="path4169"
           inkscape:connector-curvature="0" />
        <path
           style="fill:#aa2f35;fill-opacity:1"
           d="m 236.4991,23.151161 c -1.4628,-9.83514 -1.52266,-11.15116 -0.50724,-11.15116 1.14854,0 1.43079,0.90396 1.96707,6.3 0.6891,6.93378 1.12692,7.24758 2.68598,1.9252 0.97375,-3.3242 1.62257,-4.62429 2.24579,-4.5 0.48203,0.0961 1.61531,2.19111 2.5184,4.6555 1.87524,5.11725 2.11495,4.86665 2.75587,-2.88094 0.28503,-3.44547 0.67609,-5.10095 1.25767,-5.32413 0.46421,-0.17813 1.00742,-0.16048 1.20712,0.0392 0.19971,0.19971 -0.12854,3.7565 -0.72943,7.90399 -1.07809,7.44118 -1.11233,7.5385 -2.58953,7.36101 -1.24757,-0.14989 -1.71251,-0.80366 -2.79056,-3.92397 -0.71146,-2.05926 -1.42505,-3.8756 -1.58576,-4.03631 -0.1607,-0.16071 -0.89893,1.59164 -1.64048,3.89411 -1.15685,3.59187 -1.54602,4.18631 -2.74076,4.18631 -1.27192,0 -1.44974,-0.38511 -2.05414,-4.44884 z"
           id="path4167"
           inkscape:connector-curvature="0" />
        <path
           style="fill:#aa2f35;fill-opacity:1"
           clip-path="none"
           d="m 260.76172,11.650391 c -2.20958,-0.01115 -4.21082,0.543561 -4.42774,1.669921 -0.16184,0.84039 0.31967,0.926696 3.53907,0.634766 4.08368,-0.37029 5.34179,0.397546 5.34179,3.259766 0,1.2642 -0.26439,1.384765 -3.02929,1.384765 -3.27463,0 -6.20301,1.173893 -6.79883,2.726563 -0.7039,1.83434 -0.37035,3.875739 0.82812,5.074219 1.44225,1.44225 5.22076,1.615359 6.93555,0.318359 1.51256,-1.14406 2.66406,-1.152751 2.66406,-0.01953 0,0.495 0.40539,0.90039 0.90039,0.90039 0.74451,0 0.90039,-1.120228 0.90039,-6.486328 0,-5.60099 -0.16019,-6.658377 -1.16992,-7.742187 -1.05534,-1.132765 -3.47401,-1.709555 -5.68359,-1.720703 z m 1.49609,8.75 c 2.7589,0 2.95703,0.100142 2.95703,1.507812 0,1.05837 -0.58137,1.865229 -1.94922,2.699219 -1.07249,0.65391 -2.35656,1.180875 -2.85156,1.171875 -1.53196,-0.02724 -3,-1.185978 -3,-2.367188 0,-1.97205 1.67407,-3.011718 4.84375,-3.011718 z"
           id="path4165"
           inkscape:connector-curvature="0" />
        <path
           style="fill:#aa2f35;fill-opacity:1"
           d="m 274.8149,19.800001 c 0,-6.53333 0.14616,-7.8 0.9,-7.8 0.5,0 0.9,0.53333 0.9,1.2 0,1.50663 0.71649,1.52876 2.04291,0.0631 2.3131,-2.55595 7.03764,-1.81644 8.11357,1.26997 0.87231,2.50232 0.81827,2.86695 -0.42493,2.86695 -0.6362,0 -1.34334,-0.72823 -1.74789,-1.8 -0.91737,-2.43041 -3.50486,-2.48294 -5.7714,-0.11717 -1.49704,1.56257 -1.61226,2.05566 -1.61226,6.9 0,4.81717 -0.092,5.21717 -1.2,5.21717 -1.13846,0 -1.2,-0.4 -1.2,-7.8 z"
           id="path4161"
           inkscape:connector-curvature="0" />
        <path
           style="fill:#aa2f35;fill-opacity:1"
           d="m 297.73242,11.654297 c -2.07578,0.112517 -4.09252,1.17069 -5.23242,3.375 -2.03238,3.93018 -0.9624,10.036375 2.04688,11.671875 1.59382,0.86623 6.99286,1.197436 8.71874,0.535156 0.52199,-0.20031 0.94922,-0.716131 0.94922,-1.144531 0,-0.58702 -0.87445,-0.699541 -3.54882,-0.457031 -3.23517,0.29335 -3.68524,0.185864 -5.09961,-1.228516 -0.85327,-0.85327 -1.55079,-2.104297 -1.55079,-2.779297 10e-6,-1.14547 0.35844,-1.226562 5.39844,-1.226562 l 5.40039,0 0,-2.353516 c 0,-4.1391 -3.62239,-6.580107 -7.08203,-6.392578 z m 0.48242,1.945312 c 2.16967,0 4.19922,1.869808 4.19922,3.867188 0,1.00342 -0.48131,1.132812 -4.19922,1.132812 -3.7179,0 -4.19922,-0.129392 -4.19922,-1.132812 10e-6,-1.99738 2.02955,-3.867188 4.19922,-3.867188 z"
           id="path4159"
           inkscape:connector-curvature="0" />
      </g>
      <g
         transform="translate(209.16715,376.06536)"
         id="g4309">
        <ellipse
           transform="matrix(1.1724531,0,0,0.65831316,-33.986177,-68.213888)"
           rx="63.394535"
           ry="3.8420932"
           cy="267.07202"
           cx="93.277481"
           id="path4369"
           style="fill:url(#radialGradient4377);fill-opacity:1;stroke:none;stroke-width:1;stroke-linejoin:miter;stroke-miterlimit:4;stroke-dasharray:none;stroke-dashoffset:0;stroke-opacity:1;filter:url(#filter4543)" />
        <path
           style="fill:#a2373a;fill-opacity:1"
           d="m 36.589823,92.907981 c -7.262973,-4.42514 -15.726067,-13.07617 -18.986355,-19.40798 -3.066191,-5.95485 -4.264864,-9.95345 -4.758626,-15.87408 -1.874287,-22.47432 18.523316,-43.97973 47.007895,-49.5609298 2.56419,-0.50242 5.240916,-1.03551 5.94828,-1.18464 1.00821,-0.21255 1.370892,0.0844 1.678494,1.37425 0.215808,0.90497 0.52593,2.0963998 0.689154,2.6476098 0.23874,0.80625 -0.382782,1.13881 -3.178494,1.70072 -8.765051,1.76171 -15.062103,4.2457 -21.02036,8.29188 -11.344559,7.70394 -17.640214,19.98688 -15.774187,30.77574 1.775771,10.26702 10.52383,20.87093 21.049257,25.51473 1.325572,0.58485 2.333608,1.34855 2.240078,1.69712 -0.306017,1.14048 -9.161513,17.09417 -9.495137,17.10604 -0.178795,0.006 -2.608795,-1.37985 -5.399999,-3.08046 z"
           id="path4237"
           inkscape:connector-curvature="0" />
        <path
           style="fill:#557942;fill-opacity:1"
           d="m 66.914905,94.980511 c -4.058154,-0.36822 -11.837487,-2.05475 -15.108099,-3.27539 l -3.1081,-1.15998 2.9581,-6.33487 c 1.626955,-3.48418 2.9581,-6.51502 2.9581,-6.7352 0,-0.22018 -2.0925,-1.40794 -4.65,-2.63946 -5.954354,-2.86721 -11.915034,-7.3562 -14.444085,-10.87784 l -1.985722,-2.76507 5.588628,-2.58633 5.58863,-2.58634 2.213192,3.09069 c 2.695408,3.7641 7.351355,7.06608 12.861807,9.12156 3.267419,1.21879 5.565419,1.59718 11.027549,1.81584 7.841448,0.31389 12.229326,-0.53509 18.111096,-3.5042 l 3.507048,-1.77036 5.266518,5.56322 c 2.896593,3.05977 6.737653,7.14319 8.535703,9.07426 l 3.26917,3.51105 -1.79476,1.46441 c -3.05236,2.49052 -13.551109,7.36795 -18.594775,8.63862 -7.466802,1.88115 -15.357978,2.5762 -22.2,1.95539 z"
           id="path4235"
           inkscape:connector-curvature="0" />
        <path
           style="fill:#2d4060;fill-opacity:1"
           d="M 2.7068492,62.819981 C 2.1870907,57.273381 3.210436,50.351971 5.4640145,44.171841 11.023543,28.925591 26.131442,15.187221 44.158501,8.9850012 c 6.097233,-2.09776 4.821253,-0.30911 -2.2617,3.1704198 -7.896102,3.87898 -13.007751,7.59619 -18.577569,13.50968 -7.962064,8.45334 -11.997445,17.7815 -12.127955,28.0349 -0.04201,3.3 0.119065,7.08337 0.357929,8.40748 l 0.4343,2.40747 -3.8467493,1.34253 c -2.1157121,0.73839 -4.1106106,1.34252 -4.4331078,1.34252 -0.3224971,0 -0.771057,-1.97101 -0.9967997,-4.38002 z"
           id="path4229"
           inkscape:connector-curvature="0" />
        <path
           style="fill:#b0403e;fill-opacity:1"
           d="m 132.01491,64.131871 c -2.805,-1.25661 -6.62967,-2.95273 -8.49927,-3.76916 l -3.39927,-1.4844 1.14927,-3.69261 c 3.13171,-10.06221 -0.002,-20.82211 -8.53476,-29.3042 l -4.08727,-4.06305 4.28634,-1.9045 4.28635,-1.90451 3.11701,2.40476 c 8.90525,6.87035 15.17144,16.04302 17.41031,25.4858 1.0087,4.25439 1.04314,13.85648 0.0637,17.75831 l -0.6924,2.7583 -5.1,-2.28474 z"
           id="path4227"
           inkscape:connector-curvature="0" />
        <path
           style="fill:#35507a;fill-opacity:1"
           d="m 102.61574,62.604481 -3.667561,-3.39552 2.627871,-2.75448 c 1.44534,-1.51496 3.08194,-3.48991 3.6369,-4.38876 1.46037,-2.36532 2.88287,-8.29 2.45905,-10.24192 l -0.36395,-1.6762 4.70343,0.1762 4.70343,0.1762 0.3,2.7 c 0.45199,4.06794 -0.40847,9.26944 -2.13829,12.92599 -1.47101,3.10946 -7.0118,9.87401 -8.08772,9.87401 -0.27807,0 -2.15599,-1.52798 -4.17316,-3.39552 z"
           id="path4225"
           inkscape:connector-curvature="0" />
        <path
           style="fill:#000000"
           d="m 30.650308,54.488331 c -0.42763,-1.42358 -0.762287,-4.61333 -0.743681,-7.08833 0.05757,-7.65878 3.075523,-14.25914 9.19054,-20.1 l 3.140811,-3 -2.848118,3.25558 c -3.843464,4.39332 -5.541663,7.43688 -6.72349,12.04999 -1.18449,4.62353 -0.837276,9.59705 0.952455,13.64303 0.66585,1.50526 1.139307,2.80817 1.052129,2.89535 -0.08718,0.0872 -0.852549,0.3327 -1.700822,0.5456 -1.406719,0.35307 -1.610671,0.15954 -2.319824,-2.20122 z"
           id="path4191"
           inkscape:connector-curvature="0" />
        <path
           style="fill:#9f3639;fill-opacity:1"
           d="m 41.695546,39.750001 c 1.549478,-8.41722 9.996128,-15.88445 20.867217,-18.4476 3.751392,-0.88449 14.201064,-1.11331 17.418042,-0.38141 1.577484,0.35889 1.61727,0.4481 0.749676,1.6809 -0.859362,1.22109 -1.260678,1.28151 -6.4659,0.97351 -6.585426,-0.38968 -11.019852,0.40589 -15.925083,2.85706 -6.022898,3.00968 -10.279107,8.35048 -10.311415,12.93903 -0.01192,1.69323 -0.227503,1.90692 -2.263177,2.2434 -4.353907,0.71966 -4.530257,0.63884 -4.06936,-1.86489 z"
           id="path4183"
           inkscape:connector-curvature="0" />
        <path
           style="fill:#557942;fill-opacity:1"
           d="m 112.58671,30.230231 c -4.63079,-7.30432 -15.446313,-12.45753 -27.809109,-13.25005 -4.374276,-0.28042 -5.591982,-0.55716 -5.797614,-1.31758 -1.056732,-3.90779 -1.633494,-7.3939698 -1.281342,-7.7449898 0.610008,-0.60804 11.949012,-0.30465 16.605228,0.4443 5.534135,0.89015 13.433867,3.2505998 18.580617,5.5518998 l 4.33299,1.93743 -6.25129,2.91739 -6.25128,2.91738 1.8,1.25952 c 2.47035,1.72858 9.3,8.64948 9.3,9.42426 0,1.46794 -1.62314,0.39217 -3.2282,-2.13956 z"
           id="path4181"
           inkscape:connector-curvature="0" />
        <path
           style="fill:#557942;fill-opacity:1"
           d="m 130.86055,27.957351 c -1.68173,-2.11345 -4.33748,-4.97503 -5.90167,-6.35907 -2.318,-2.05104 -2.40011,-2.18134 -0.44397,-0.70452 3.82917,2.89089 11.21131,10.90624 10.04465,10.90624 -0.35273,0 -2.01729,-1.72919 -3.69901,-3.84265 z"
           id="path4179"
           inkscape:connector-curvature="0" />
        <path
           style="fill:#000000"
           d="m 42.614906,24.373471 c 0,-0.1246 0.4725,-0.5971 1.05,-1.05 0.951634,-0.74633 0.972856,-0.7251 0.226533,0.22653 -0.783821,0.99945 -1.276533,1.31729 -1.276533,0.82347 z"
           id="path4138"
           inkscape:connector-curvature="0" />
      </g>
      <flowRoot
         transform="translate(0.00619044,-229.58776)"
         style="font-style:normal;font-variant:normal;font-weight:normal;font-stretch:normal;font-size:28.75px;line-height:100%;font-family:Hack;-inkscape-font-specification:'Hack, Normal';text-align:justify;letter-spacing:0px;word-spacing:0px;writing-mode:lr-tb;text-anchor:start;fill:#000000;fill-opacity:1;stroke:none;stroke-width:1px;stroke-linecap:butt;stroke-linejoin:miter;stroke-opacity:1"
         id="flowRoot5069-5-2"
         xml:space="preserve"><flowRegion
           id="flowRegion5071-4-9"><rect
             style="font-style:normal;font-variant:normal;font-weight:normal;font-stretch:normal;font-size:28.75px;line-height:100%;font-family:Hack;-inkscape-font-specification:'Hack, Normal';text-align:justify;writing-mode:lr-tb;text-anchor:start;fill:#000000;fill-opacity:1"
             y="722.12585"
             x="371.89563"
             height="102.33018"
             width="246.33698"
             id="rect5073-9-0" /></flowRegion><flowPara
           id="flowPara5077-2-2">Fellowship Application 2018</flowPara></flowRoot>    </g>
  </g>
</svg>
